<svg width="424" height="443" viewBox="0 0 424 443" fill="none" xmlns="http://www.w3.org/2000/svg">
<circle cx="212" cy="212" r="212" fill="#E1E1FF"/>
<path d="M78.813 373.142C79.9917 368.469 76.905 363.814 73.4536 360.422C70.0023 357.03 65.8895 354.045 64.0832 349.584C61.1492 342.342 64.9821 332.938 60.0128 326.909C57.0957 323.373 51.8805 322.211 49.2856 318.429C47.9288 316.445 47.4709 313.994 46.9282 311.645C44.118 299.612 38.1291 288.553 29.5866 279.624C29.0556 290.364 31.4315 301.048 36.4639 310.551C38.4821 314.342 40.9498 318.039 41.6367 322.279C42.756 329.165 38.9485 336.288 40.6784 343.046C42.6543 350.78 51.3802 355.91 51.8381 363.873C52.2282 370.615 46.3855 376.593 46.8688 383.284C47.0639 386.15 48.4122 388.804 49.9047 391.264C55.1623 399.888 62.8536 405.807 74.4458 405.552L88.6583 405.968L78.813 373.142Z" fill="#F5F5F5"/>
<path d="M91.5837 406.324C92.8862 406.514 94.2117 406.476 95.5015 406.214C97.0734 405.979 98.6166 405.581 100.106 405.027C102.164 404.302 104.084 403.235 105.788 401.872C106.814 401.037 107.616 399.958 108.12 398.734C108.54 397.36 108.757 395.932 108.764 394.494C108.78 392.958 108.882 391.423 109.069 389.898C109.332 388.276 109.908 386.721 110.765 385.319C112.419 382.368 115.184 379.57 116.065 375.567C116.947 371.565 116.286 367.384 115.608 363.118C114.929 358.853 114.259 354.214 115.862 349.771C117.465 345.327 120.45 341.291 121.985 336.271C123.519 331.251 122.748 325.764 123.045 320.396C123.132 317.673 123.746 314.992 124.851 312.501C125.987 309.957 127.573 307.6 128.802 304.946C131.287 299.578 131.703 293.506 132.356 287.562C132.678 284.571 133 281.544 133.322 278.48C133.516 275.405 134.027 272.358 134.849 269.389C135.794 266.387 136.913 263.443 138.198 260.57C138.868 259.087 139.41 257.549 139.818 255.974C140.053 254.352 140.197 252.718 140.25 251.081C140.39 247.798 140.245 244.51 139.818 241.252C139.411 237.979 138.8 234.731 138.436 231.45C138.436 231.254 138.385 231.059 138.368 230.881L138.292 230.228L137.706 230.517C134.695 232.067 132.082 234.293 130.074 237.021C128.12 239.681 126.552 242.604 125.419 245.704C123.087 251.818 122.264 258.221 121.103 264.36C119.941 270.5 118.465 276.478 115.362 281.575C113.827 284.119 111.97 286.434 110.316 288.91C108.569 291.323 107.381 294.096 106.839 297.025C105.991 303.038 109.383 308.295 108.713 313.621C108.407 316.24 107.54 318.762 106.169 321.015C104.897 323.288 103.396 325.399 101.929 327.528C100.473 329.598 99.2098 331.798 98.1557 334.1C97.1742 336.359 96.6 338.773 96.4597 341.232C96.1375 346.023 96.8413 350.56 96.5191 354.859C96.1516 358.945 94.9816 362.919 93.0762 366.553C91.3802 370.064 89.4892 373.227 87.9034 376.305C87.1063 377.84 86.377 379.341 85.7749 380.842C85.2274 382.295 84.8323 383.801 84.5962 385.336C84.1874 388.022 84.1674 390.752 84.5368 393.443C84.9357 397.196 86.3617 400.767 88.6581 403.763C89.0113 404.207 89.3998 404.621 89.8199 405.001C90.1 405.296 90.413 405.558 90.7527 405.781C91.2869 406.171 91.6007 406.35 91.6007 406.35C90.5864 405.548 89.6597 404.641 88.8362 403.644C86.6247 400.649 85.273 397.107 84.9269 393.401C84.589 390.742 84.6347 388.049 85.0626 385.404C85.3173 383.901 85.7294 382.428 86.2922 381.011C86.8858 379.544 87.632 378.052 88.4291 376.534C90.0319 373.49 91.9399 370.326 93.6783 366.799C95.6286 363.112 96.8385 359.079 97.2399 354.927C97.5875 350.543 96.9007 345.98 97.2399 341.299C97.3893 338.921 97.9638 336.589 98.9359 334.414C99.9811 332.156 101.23 329.999 102.667 327.969C104.092 325.857 105.618 323.729 106.907 321.405C108.334 319.064 109.242 316.444 109.57 313.722C110.223 308.049 106.907 302.749 107.73 297.161C108.27 294.355 109.429 291.704 111.122 289.402C112.724 286.968 114.607 284.645 116.21 282.041C119.407 276.801 120.941 270.678 122.086 264.538C123.231 258.399 124.079 252.056 126.377 246.069C127.473 243.04 128.998 240.184 130.905 237.589C132.821 234.98 135.314 232.85 138.19 231.365L137.537 231C137.537 231.187 137.579 231.382 137.605 231.577C137.978 234.901 138.588 238.149 138.987 241.388C139.41 244.598 139.554 247.838 139.419 251.072C139.364 252.658 139.228 254.24 139.012 255.813C138.614 257.332 138.089 258.816 137.444 260.248C136.117 263.148 134.961 266.124 133.984 269.16C133.149 272.179 132.632 275.277 132.44 278.403C132.118 281.467 131.799 284.498 131.482 287.494C130.838 293.43 130.422 299.442 128.022 304.615C126.844 307.201 125.266 309.584 124.096 312.188C122.955 314.773 122.324 317.555 122.239 320.379C121.959 325.866 122.705 331.217 121.247 336.084C119.788 340.952 116.727 344.971 115.184 349.567C113.64 354.164 114.259 359.006 114.963 363.246C115.667 367.486 116.379 371.675 115.489 375.457C114.598 379.239 112.004 382.054 110.308 385.09C109.437 386.553 108.861 388.172 108.612 389.856C108.432 391.398 108.342 392.95 108.34 394.503C108.345 395.903 108.148 397.297 107.755 398.641C107.282 399.805 106.531 400.836 105.567 401.643C103.905 402.995 102.031 404.064 100.021 404.806C98.5505 405.373 97.0283 405.796 95.476 406.07C94.5243 406.245 93.5602 406.344 92.5928 406.366C91.906 406.316 91.5837 406.324 91.5837 406.324Z" fill="#E0E0E0"/>
<path d="M135.51 238.708C135.442 238.844 135.396 238.99 135.375 239.141C135.29 239.48 135.188 239.904 135.069 240.421C134.789 241.541 134.467 243.237 133.941 245.348C133.416 247.46 132.127 249.843 131.041 252.785C129.956 255.728 128.769 259.077 127.717 262.876C126.666 266.675 125.724 270.881 124.741 275.401C123.757 279.921 122.722 284.729 120.272 289.3C119.118 291.615 117.821 293.956 116.795 296.517C115.789 299.144 115.119 301.888 114.802 304.683C114.116 310.464 113.125 316.204 111.834 321.88C109.053 333.54 106.398 344.649 103.99 354.757C101.582 364.865 99.2837 373.913 97.4096 381.562C95.5355 389.211 94.0939 395.317 93.0509 399.659L91.9061 404.594C91.7958 405.111 91.7026 405.535 91.6347 405.875C91.5972 406.022 91.5744 406.172 91.5669 406.324C91.6393 406.191 91.6935 406.048 91.728 405.9L92.0842 404.637C92.4064 403.449 92.8389 401.813 93.3901 399.744C94.5094 395.419 96.0867 389.279 98.0371 381.724L104.821 354.961C107.255 344.844 109.909 333.761 112.741 322.075C114.032 316.366 115.015 310.591 115.684 304.776C115.993 302.052 116.64 299.378 117.609 296.813C118.601 294.32 119.873 291.988 121.001 289.648C123.477 284.992 124.486 280.014 125.453 275.529C126.42 271.043 127.302 266.811 128.319 263.021C129.337 259.23 130.414 255.855 131.491 252.938C132.568 250.021 133.755 247.587 134.264 245.408C134.772 243.228 135.001 241.575 135.222 240.43C135.307 239.904 135.383 239.48 135.434 239.132C135.475 238.994 135.5 238.852 135.51 238.708Z" fill="#E0E0E0"/>
<path d="M94.0768 406.358C103.329 400.787 105.898 384.03 101.963 373.973C98.0285 363.916 91.2106 354.749 90.0912 344.013C89.2432 335.762 91.8975 327.265 89.9216 319.209C87.2674 308.329 76.5826 299.951 76.6419 288.749C76.6419 282.465 80.2205 276.538 79.8983 270.262C79.5082 262.563 73.5637 256.491 69.8579 249.724C64.2018 239.378 63.7608 227.099 61.7765 215.473C59.7922 203.847 55.3063 191.407 44.9437 185.742C43.4767 195.63 40.9157 202.414 41.8061 215.795C42.1283 220.604 47.7421 229.779 48.5901 240.311C49.0819 246.603 49.4381 252.912 49.8536 259.213C50.2607 265.344 50.7016 271.585 52.9234 277.309C54.6194 281.702 57.3669 285.679 58.6389 290.216C61.0472 298.738 58.0029 308.024 59.9533 316.648C61.6493 323.975 66.7373 330.216 67.7973 337.678C69.3067 348.117 62.6075 359.006 66.1013 368.953C67.8482 373.888 71.9356 377.831 73.1227 382.928C74.0386 386.888 73.1227 391.085 73.9199 395.063C75.2597 401.465 87.4879 406.366 94.0429 405.934" fill="#E0E0E0"/>
<path d="M47.5726 195.537C47.552 195.723 47.552 195.91 47.5726 196.096C47.6319 196.512 47.6998 197.046 47.793 197.716C48.0135 199.141 48.2679 201.235 48.7598 203.949C49.2516 206.662 50.7186 209.724 51.8634 213.421C53.0082 217.118 54.2633 221.35 55.3318 226.141C56.4002 230.932 57.333 236.164 58.2998 241.829C59.2665 247.494 60.3095 253.701 63.1588 259.552C64.4732 262.512 65.9487 265.488 67.0681 268.626C68.1554 271.869 68.8306 275.237 69.0778 278.649C69.6399 285.894 70.591 293.104 71.9271 300.248C74.8527 314.876 77.6342 328.8 80.1697 341.486C82.8409 354.113 85.2577 365.493 87.2674 375.075L92.135 397.7C92.7116 400.32 93.1695 402.381 93.5002 403.839C93.6529 404.501 93.7801 405.027 93.8734 405.434C93.9064 405.617 93.9605 405.797 94.0345 405.968C94.0326 405.782 94.0099 405.597 93.9666 405.417C93.8903 405.001 93.797 404.475 93.6783 403.805C93.39 402.33 92.9914 400.261 92.4826 397.624C91.3887 392.213 89.8284 384.471 87.9035 374.94C85.9785 365.408 83.638 353.96 81.0346 341.282C78.4313 328.605 75.7601 314.672 72.8684 300.053C71.5315 292.921 70.5776 285.722 70.0106 278.488C69.7478 275.022 69.0497 271.603 67.933 268.312C66.7798 265.09 65.2873 262.122 63.9644 259.188C61.1406 253.379 60.123 247.315 59.0884 241.668C58.0538 236.02 57.138 230.737 56.0102 225.971C54.8823 221.206 53.6442 216.949 52.3892 213.251C51.1342 209.554 49.7265 206.467 49.1498 203.856C48.5732 201.244 48.3018 199.09 48.0135 197.682C47.8863 197.012 47.7846 196.486 47.7082 196.071C47.6825 195.888 47.637 195.709 47.5726 195.537Z" fill="#EBEBEB"/>
<path d="M180.895 62.9434H84.6304V163.287H180.895V62.9434Z" fill="#E0E0E0"/>
<path d="M174.374 62.9434H78.1094V163.287H174.374V62.9434Z" fill="#FAFAFA"/>
<path d="M174.4 163.321H78.084V62.918H174.4V163.321ZM78.1433 163.262H174.34V62.9773H78.1433V163.262Z" fill="#E0E0E0"/>
<path d="M161.434 76.4351H91.0498V149.804H161.434V76.4351Z" fill="#FAFAFA"/>
<path d="M91.0497 150.287C90.5557 151.029 89.9718 151.707 89.3113 152.306C88.1919 153.493 86.6146 155.104 84.8423 156.842C83.07 158.581 81.4503 160.141 80.2461 161.244C79.6347 161.885 78.9518 162.454 78.2109 162.94C78.6941 162.204 79.2634 161.53 79.9069 160.93C81.0348 159.743 82.6205 158.131 84.3929 156.384C86.1652 154.638 87.7849 153.077 88.9975 151.975C89.6159 151.337 90.3043 150.771 91.0497 150.287Z" fill="#E0E0E0"/>
<path d="M161.434 150.109C162.169 150.596 162.846 151.165 163.452 151.805C164.639 152.925 166.242 154.51 167.989 156.274C169.736 158.038 171.287 159.666 172.39 160.879C173.036 161.486 173.605 162.169 174.086 162.914C173.353 162.428 172.678 161.859 172.076 161.218C170.889 160.09 169.278 158.505 167.531 156.732C165.784 154.96 164.224 153.34 163.121 152.128C162.48 151.525 161.913 150.847 161.434 150.109Z" fill="#E0E0E0"/>
<path d="M161.239 76.664C161.738 75.9266 162.322 75.2494 162.977 74.6458C164.105 73.4586 165.682 71.8558 167.454 70.109C169.227 68.3621 170.846 66.8102 172.051 65.7078C172.66 65.0643 173.343 64.4951 174.086 64.0118C173.603 64.7474 173.034 65.4221 172.39 66.0216C171.262 67.2088 169.685 68.82 167.904 70.5669C166.123 72.3138 164.512 73.8741 163.299 74.9765C162.683 75.6206 161.991 76.1873 161.239 76.664Z" fill="#E0E0E0"/>
<path d="M90.8548 76.8082C90.1191 76.3223 89.4419 75.7532 88.8366 75.1122C87.6494 73.9928 86.0466 72.4155 84.2998 70.6432C82.5529 68.8709 81.001 67.2512 79.8986 66.047C79.2521 65.4407 78.6825 64.7571 78.2026 64.0118C78.9355 64.498 79.6099 65.0671 80.2124 65.7078C81.3996 66.8357 83.0023 68.4214 84.7577 70.1938C86.513 71.9661 88.0649 73.5858 89.1673 74.8069C89.8089 75.403 90.3756 76.0751 90.8548 76.8082Z" fill="#E0E0E0"/>
<path d="M161.239 149.804C161.239 149.804 161.239 149.677 161.239 149.448C161.239 149.219 161.239 148.854 161.239 148.422C161.239 147.497 161.239 146.175 161.239 144.462C161.239 140.985 161.239 135.931 161.162 129.511C161.162 116.656 161.086 98.3559 161.027 76.4351L161.298 76.7064H91.1176L91.4313 76.3927C91.4313 103.325 91.4313 128.511 91.4313 149.762L91.16 149.49L141.981 149.626L156.261 149.702H160.035H161.01H161.349H161.044H160.094H156.371L142.15 149.77L91.16 149.906H90.8971V149.643C90.8971 128.392 90.8971 103.206 90.8462 76.274V75.9602H91.1684H161.349H161.62V76.2316C161.561 98.2202 161.519 116.588 161.485 129.477C161.485 135.871 161.434 140.909 161.417 144.368C161.417 146.064 161.417 147.37 161.417 148.278C161.417 148.702 161.417 149.032 161.417 149.27C161.378 149.454 161.319 149.633 161.239 149.804Z" fill="#E0E0E0"/>
<path d="M137.986 101.375H114.497V124.856H137.986V101.375Z" fill="#EBEBEB"/>
<path d="M357.372 111.907V199.463H231.623L227.094 112.518L357.372 111.907Z" fill="#E0E0E0"/>
<path d="M227.086 112.517V199.276H352.836V112.517L227.086 112.517Z" fill="white"/>
<path d="M353.438 199.878H226.492V111.924H353.438V199.878ZM227.688 198.683H352.242V113.128H227.688V198.683Z" fill="#E0E0E0"/>
<path d="M339.225 123.304H240.713V188.507H339.225V123.304Z" fill="white"/>
<path d="M339.2 123.304H338.708H337.309H331.899L311.598 123.38L240.688 123.516L240.968 123.236C240.968 143.156 240.968 165.229 240.968 188.422L240.662 188.117L339.174 188.176L338.92 188.422C338.979 168.579 339.022 152.314 339.056 140.985C339.056 135.32 339.107 130.902 339.115 127.866C339.115 126.365 339.115 125.221 339.115 124.423C339.115 123.626 339.115 123.228 339.115 123.228C339.115 123.228 339.115 123.601 339.115 124.373C339.115 125.144 339.115 126.289 339.115 127.765C339.115 130.783 339.115 135.185 339.183 140.824C339.183 152.187 339.251 168.511 339.31 188.414V188.659H339.2L240.688 188.727H240.374V188.414C240.374 165.221 240.374 143.147 240.374 123.228V122.939H240.662L311.759 123.084L332 123.16H337.351H338.717C339.073 123.304 339.2 123.304 339.2 123.304Z" fill="#E0E0E0"/>
<path d="M227.094 112.28C227.87 112.655 228.596 113.125 229.257 113.679C230.537 114.612 232.292 115.926 234.184 117.436C236.075 118.945 237.737 120.387 238.907 121.455C239.583 121.995 240.189 122.616 240.713 123.304C240.594 123.431 237.567 120.938 233.793 117.928C230.02 114.917 226.984 112.424 227.094 112.28Z" fill="#E0E0E0"/>
<path d="M352.844 112.526C352.946 112.653 349.986 115.18 346.221 118.157C342.456 121.133 339.327 123.431 339.225 123.304C339.123 123.177 342.074 120.641 345.84 117.665C349.605 114.688 352.768 112.39 352.844 112.526Z" fill="#E0E0E0"/>
<path d="M352.768 199.293L338.75 187.93L352.768 199.293Z" fill="white"/>
<path d="M338.725 187.93C338.827 187.794 342.058 190.228 345.925 193.366C349.792 196.503 352.853 199.158 352.709 199.302C352.564 199.446 349.376 196.995 345.501 193.858C341.625 190.72 338.615 188.057 338.725 187.93Z" fill="#E0E0E0"/>
<path d="M227.094 199.276C226.984 199.141 229.918 196.648 233.641 193.705C237.364 190.762 240.467 188.481 240.569 188.617C240.671 188.753 237.745 191.246 234.022 194.188C230.3 197.131 227.196 199.412 227.094 199.276Z" fill="#E0E0E0"/>
<path d="M260.718 143.622V165.45H322.706V143.622H260.718Z" fill="#E0E0E0"/>
<path d="M347.612 233.875L358.11 221.155C358.11 221.155 360.748 203.932 360.383 201.507C359.61 198.279 358.642 195.102 357.483 191.992C357.411 191.785 357.385 191.566 357.407 191.348C357.429 191.13 357.499 190.92 357.611 190.732C357.724 190.545 357.876 190.384 358.058 190.262C358.239 190.139 358.445 190.058 358.662 190.025C360.57 189.711 363.69 190.025 366.115 194.629C368.337 198.869 369.507 204.585 370.067 208.308C370.142 208.762 370.313 209.195 370.57 209.578C370.827 209.96 371.163 210.283 371.555 210.524C371.948 210.766 372.388 210.92 372.845 210.976C373.302 211.033 373.766 210.99 374.205 210.852C379.029 209.321 383.954 208.128 388.944 207.281C391.818 206.951 395.058 209.69 395.685 211.742C396.16 213.285 393.743 216.236 393.743 216.236C393.743 216.236 396.245 217.22 397.135 218.992C397.254 219.221 397.364 219.442 397.458 219.662C397.76 220.384 397.869 221.171 397.774 221.948C397.679 222.724 397.383 223.462 396.915 224.089L396.253 224.937C396.253 224.937 399.306 225.454 399.84 227.125C400.168 228.351 400.263 229.628 400.12 230.89L397.619 234.044C398.449 234.683 399.045 235.577 399.315 236.588C399.611 238.14 395.812 242.44 395.812 242.44L376.554 249.749L369.77 256.219L347.612 233.875Z" fill="#B78876"/>
<path d="M395.405 216.711C395.283 216.807 395.149 216.886 395.007 216.949L393.811 217.551L389.393 219.705L382.813 222.842C381.566 223.41 380.269 224.097 378.861 224.606C378.117 224.92 377.309 225.052 376.504 224.991C375.699 224.931 374.92 224.679 374.231 224.258C373.558 223.749 373.091 223.015 372.916 222.189C372.753 221.408 372.782 220.599 373.001 219.832C373.453 218.406 374.373 217.175 375.613 216.338C376.692 215.589 377.826 214.923 379.005 214.345L382.007 212.759L386.366 210.495L387.561 209.893C387.698 209.816 387.843 209.756 387.994 209.715C387.874 209.815 387.743 209.9 387.604 209.969L386.451 210.639L382.16 213.031L379.183 214.667C378.035 215.252 376.929 215.918 375.876 216.66C374.72 217.453 373.861 218.607 373.434 219.942C373.198 220.633 373.175 221.379 373.367 222.083C373.559 222.787 373.957 223.418 374.511 223.894C375.123 224.315 375.846 224.545 376.588 224.555C377.322 224.565 378.051 224.445 378.742 224.199C380.124 223.716 381.405 223.029 382.66 222.503L389.274 219.45L393.752 217.423L394.981 216.889C395.115 216.812 395.257 216.752 395.405 216.711Z" fill="#AA6550"/>
<path d="M397.5 225.496C397.209 225.691 396.899 225.856 396.576 225.988C395.965 226.277 395.083 226.675 393.972 227.142C391.767 228.083 388.672 229.295 385.204 230.474C384.357 230.779 383.493 231.037 382.617 231.246C381.779 231.447 380.903 231.43 380.073 231.195C379.37 230.961 378.747 230.533 378.277 229.96C377.807 229.386 377.51 228.691 377.419 227.956C377.32 226.967 377.608 225.979 378.225 225.2C378.389 224.994 378.577 224.809 378.784 224.648C378.929 224.547 379.013 224.504 379.022 224.513C379.03 224.521 378.734 224.767 378.36 225.301C377.842 226.068 377.617 226.995 377.724 227.913C377.828 228.576 378.114 229.198 378.549 229.708C378.985 230.218 379.554 230.598 380.192 230.805C380.965 231.005 381.776 231.005 382.55 230.805C383.411 230.593 384.26 230.335 385.094 230.033C388.562 228.863 391.657 227.701 393.887 226.836L396.542 225.81C396.85 225.674 397.171 225.569 397.5 225.496Z" fill="#AA6550"/>
<path d="M398.06 233.756C397.768 233.895 397.46 233.998 397.144 234.061L394.6 234.74C392.446 235.291 389.469 236.02 386.179 236.8C385.372 237.011 384.554 237.178 383.728 237.301C382.928 237.423 382.108 237.32 381.362 237.004C381.014 236.861 380.701 236.642 380.448 236.363C380.194 236.085 380.005 235.753 379.895 235.393C379.717 234.77 379.759 234.105 380.014 233.51C380.377 232.67 381.022 231.983 381.837 231.568C382.109 231.386 382.415 231.262 382.736 231.203C382.736 231.203 382.431 231.373 381.888 231.712C381.159 232.16 380.592 232.828 380.269 233.62C380.06 234.163 380.039 234.76 380.209 235.316C380.315 235.619 380.484 235.896 380.707 236.128C380.929 236.359 381.199 236.539 381.498 236.656C382.178 236.929 382.919 237.013 383.644 236.902C384.452 236.775 385.253 236.605 386.043 236.393C389.334 235.613 392.327 234.935 394.523 234.46L397.067 233.917C397.392 233.829 397.724 233.775 398.06 233.756Z" fill="#AA6550"/>
<path d="M397.763 241.252C396.819 241.378 395.866 241.427 394.914 241.396C393.158 241.396 390.724 241.396 388.045 241.396H386.077C385.454 241.42 384.83 241.366 384.22 241.235C383.633 241.11 383.106 240.786 382.728 240.319C382.564 240.11 382.45 239.866 382.394 239.606C382.338 239.346 382.342 239.077 382.406 238.819C382.513 238.468 382.696 238.144 382.94 237.871C383.184 237.597 383.485 237.379 383.822 237.233C384.054 237.105 384.32 237.048 384.585 237.072C384.585 237.114 384.313 237.148 383.898 237.385C383.607 237.543 383.352 237.758 383.148 238.017C382.944 238.277 382.795 238.575 382.711 238.895C382.668 239.106 382.673 239.323 382.726 239.532C382.779 239.74 382.878 239.934 383.016 240.099C383.36 240.477 383.814 240.738 384.314 240.845C384.898 240.947 385.493 240.987 386.086 240.964H388.045C390.724 240.964 393.133 241.032 394.914 241.083C395.866 241.067 396.819 241.124 397.763 241.252Z" fill="#AA6550"/>
<path d="M380.065 233.934C378.542 233.277 376.957 232.774 375.333 232.433C373.686 232.244 372.024 232.225 370.372 232.374C371.997 231.858 373.721 231.73 375.404 232.001C377.087 232.272 378.684 232.934 380.065 233.934Z" fill="#AA6550"/>
<path d="M286.013 275.715L350.224 229.524L373.052 255.685L322.8 307.481C300.345 327.791 292.484 332.921 255.256 311.721L231.631 298.153L240.357 405.908H133.509C121.773 405.535 148.773 376.093 146.924 376.093L123.486 296.966L87.2252 321.337L121.595 348.21L108.875 377.645L50.1082 350.483C28.8065 336.313 31.6642 308.711 49.8369 290.699C82.5697 258.263 107.899 234.663 135.883 229.881C150.299 225.547 158.779 224.793 158.779 224.793C181.302 224.47 182.981 224.547 195.048 225.115C197.397 225.237 199.735 225.52 202.044 225.963C215.21 227.924 227.7 233.065 238.432 240.938L286.013 275.715Z" fill="#112854"/>
<path d="M287.557 297.314C287.355 297.079 287.19 296.816 287.065 296.533C286.663 295.797 286.312 295.035 286.013 294.252C285.562 293.092 285.202 291.898 284.936 290.682C284.62 289.191 284.428 287.677 284.36 286.154C284.315 284.629 284.4 283.102 284.614 281.592C284.802 280.359 285.086 279.143 285.462 277.954C285.692 277.152 285.975 276.368 286.31 275.605C286.416 275.304 286.562 275.019 286.743 274.757C286.827 274.757 286.302 275.986 285.75 278.005C285.441 279.19 285.206 280.394 285.047 281.609C284.861 283.096 284.79 284.596 284.835 286.094C284.899 287.592 285.075 289.083 285.36 290.555C285.608 291.753 285.931 292.934 286.327 294.091C287.022 296.118 287.633 297.271 287.557 297.314Z" fill="#263238"/>
<path d="M229.342 323.025C232.631 319.062 234.999 314.417 236.274 309.427C237.549 304.437 237.699 299.225 236.714 294.17C235.729 289.115 233.633 284.341 230.578 280.195C227.522 276.048 223.584 272.633 219.047 270.194" fill="#112854"/>
<path d="M219.013 271.865C219.177 271.935 219.331 272.026 219.471 272.136C219.751 272.332 220.2 272.603 220.717 272.984C222.225 274.104 223.643 275.34 224.957 276.682C229.247 281.166 232.715 286.37 235.201 292.056C236.662 295.181 237.426 298.587 237.44 302.037C237.421 304.833 236.975 307.61 236.117 310.271C235.557 312.062 234.877 313.812 234.082 315.512L233.395 316.877C233.322 317.04 233.234 317.196 233.132 317.343C233.174 317.17 233.236 317.002 233.319 316.843C233.471 316.478 233.675 315.995 233.921 315.444C234.649 313.727 235.283 311.972 235.82 310.186C236.618 307.543 237.026 304.798 237.033 302.037C236.985 298.657 236.216 295.327 234.777 292.268C232.3 286.629 228.901 281.441 224.72 276.919C223.432 275.571 222.055 274.31 220.599 273.146C220.09 272.722 219.666 272.433 219.403 272.204C219.262 272.105 219.131 271.991 219.013 271.865Z" fill="#263238"/>
<path d="M195.303 302.291C195.327 302.412 195.327 302.536 195.303 302.656C195.303 302.893 195.303 303.241 195.235 303.691C195.102 304.957 194.852 306.209 194.489 307.43C193.307 311.51 190.99 315.17 187.809 317.985C184.628 320.8 180.713 322.653 176.52 323.33C175.262 323.545 173.988 323.642 172.712 323.619C172.263 323.619 171.907 323.568 171.678 323.559C171.554 323.559 171.431 323.539 171.313 323.5C171.778 323.456 172.245 323.436 172.712 323.44C173.971 323.401 175.224 323.262 176.46 323.025C180.569 322.278 184.394 320.419 187.521 317.65C190.647 314.881 192.954 311.308 194.192 307.32C194.568 306.117 194.852 304.886 195.04 303.64C195.103 303.186 195.191 302.736 195.303 302.291Z" fill="#263238"/>
<path d="M153.369 342.3C153.431 342.452 153.471 342.612 153.488 342.775C153.556 343.139 153.632 343.623 153.734 344.157C153.874 344.886 153.976 345.622 154.039 346.362C154.115 347.21 154.251 348.21 154.268 349.304C154.268 349.847 154.31 350.424 154.327 351C154.344 351.577 154.327 352.213 154.327 352.858C154.327 354.147 154.183 355.512 154.065 356.953C153.706 360.071 153.091 363.154 152.224 366.171C151.312 369.175 150.149 372.096 148.748 374.906C148.069 376.178 147.442 377.407 146.738 378.484C146.399 379.027 146.093 379.57 145.754 380.061L144.77 381.469C144.16 382.376 143.515 383.165 142.981 383.81C142.447 384.454 141.947 385.048 141.531 385.506C141.116 385.963 140.819 386.26 140.564 386.532C140.461 386.659 140.341 386.773 140.208 386.871C140.293 386.73 140.39 386.597 140.497 386.472L141.395 385.395C141.794 384.937 142.243 384.369 142.786 383.699C143.329 383.029 143.931 382.249 144.482 381.325L145.432 379.917C145.763 379.425 146.059 378.883 146.39 378.34C147.077 377.254 147.688 376.033 148.349 374.77C151.131 369.186 152.916 363.16 153.624 356.962C153.751 355.529 153.912 354.172 153.92 352.9C153.92 352.264 153.988 351.645 153.98 351.051C153.971 350.458 153.98 349.89 153.98 349.355C153.98 348.27 153.87 347.295 153.819 346.43C153.768 345.565 153.674 344.827 153.59 344.225C153.505 343.623 153.471 343.199 153.429 342.834C153.393 342.658 153.373 342.479 153.369 342.3Z" fill="#263238"/>
<path d="M64.6089 316.987C64.898 316.84 65.2063 316.735 65.5247 316.673C65.8899 316.563 66.2607 316.473 66.6356 316.402C67.0681 316.317 67.5684 316.199 68.1196 316.139C69.422 315.946 70.7378 315.858 72.0543 315.876C73.663 315.909 75.2658 316.08 76.8455 316.385C78.4238 316.716 79.9723 317.175 81.4756 317.759C82.6943 318.25 83.8736 318.834 85.0033 319.506C85.4951 319.777 85.9022 320.082 86.2753 320.354C86.6484 320.625 86.9452 320.829 87.1911 321.024C87.4606 321.207 87.7057 321.423 87.9204 321.668C87.8695 321.736 86.7841 320.879 84.8422 319.803C83.7085 319.176 82.5326 318.629 81.323 318.166C79.8384 317.609 78.3131 317.166 76.7607 316.843C75.2048 316.546 73.6287 316.368 72.0458 316.309C70.7491 316.278 69.4518 316.332 68.162 316.47C65.9572 316.69 64.6258 317.063 64.6089 316.987Z" fill="#263238"/>
<path d="M137.376 271.967C137.377 271.798 137.4 271.63 137.444 271.466C137.52 271.093 137.605 270.618 137.724 270.042C138.05 268.309 138.285 266.559 138.427 264.801C138.636 262.194 138.556 259.572 138.19 256.983C137.738 253.816 136.712 250.758 135.163 247.96C133.625 245.157 131.46 242.748 128.837 240.922C126.675 239.462 124.226 238.482 121.654 238.047C119.919 237.762 118.149 237.762 116.413 238.047C115.175 238.25 114.522 238.488 114.505 238.437C114.658 238.364 114.817 238.304 114.98 238.259C115.437 238.1 115.905 237.973 116.379 237.877C118.134 237.529 119.936 237.486 121.705 237.75C124.339 238.145 126.852 239.118 129.066 240.599C131.761 242.439 133.982 244.892 135.544 247.756C137.117 250.6 138.15 253.711 138.589 256.932C138.941 259.552 138.989 262.204 138.733 264.835C138.566 266.604 138.282 268.361 137.885 270.093C137.749 270.703 137.63 271.17 137.537 271.492C137.499 271.655 137.445 271.814 137.376 271.967Z" fill="#263238"/>
<path d="M103.973 267.286C103.767 264.966 103.705 262.635 103.787 260.307C103.725 257.977 103.813 255.646 104.05 253.328C104.255 255.648 104.315 257.979 104.228 260.307C104.289 262.636 104.204 264.967 103.973 267.286Z" fill="#FAFAFA"/>
<path d="M87.8526 287.612C86.6433 286.533 85.531 285.35 84.5284 284.076C83.4184 282.892 82.4192 281.609 81.5435 280.243C82.754 281.324 83.8664 282.511 84.8676 283.788C85.9786 284.968 86.9778 286.248 87.8526 287.612Z" fill="#FAFAFA"/>
<path d="M114.887 283.618C112.937 284.359 110.936 284.957 108.9 285.408C106.9 286.006 104.859 286.462 102.794 286.773C104.747 286.031 106.75 285.433 108.79 284.984C110.787 284.385 112.825 283.928 114.887 283.618Z" fill="#FAFAFA"/>
<path d="M126.148 274.774C125.952 274.227 125.832 273.657 125.792 273.078C125.648 272.009 125.504 270.534 125.436 268.838C125.38 267.424 125.397 266.009 125.487 264.598C125.48 264.011 125.555 263.426 125.707 262.859C125.835 262.859 125.758 265.522 125.877 268.795C125.996 272.069 126.276 274.757 126.148 274.774Z" fill="#FAFAFA"/>
<path d="M84.0369 311.882C83.8187 309.957 83.745 308.018 83.8164 306.082C83.745 304.145 83.8216 302.206 84.0454 300.282C84.2632 302.207 84.3341 304.146 84.2574 306.082C84.3288 308.018 84.2551 309.957 84.0369 311.882Z" fill="#FAFAFA"/>
<path d="M65.3807 305.692C62.9403 304.962 60.5449 304.09 58.2066 303.08C55.8154 302.207 53.4767 301.196 51.2021 300.053C53.6427 300.785 56.0382 301.66 58.3762 302.673C60.7656 303.548 63.1041 304.555 65.3807 305.692Z" fill="#FAFAFA"/>
<path d="M49.184 326.824C49.1747 324.874 49.3165 322.926 49.608 320.998C49.7475 319.055 50.031 317.125 50.456 315.223C50.4655 317.173 50.3238 319.121 50.032 321.049C49.8944 322.993 49.6109 324.923 49.184 326.824Z" fill="#FAFAFA"/>
<path d="M75.6583 344.208C74.9007 344.104 74.1542 343.931 73.4281 343.691C72.0628 343.334 70.1887 342.843 68.0942 342.359C65.9996 341.876 64.1001 341.511 62.7179 341.198C61.9641 341.088 61.2208 340.915 60.4961 340.68C61.262 340.667 62.027 340.738 62.7772 340.892C64.1679 341.096 66.0929 341.435 68.1959 341.927C70.299 342.419 72.1731 342.953 73.5129 343.394C74.2533 343.593 74.9719 343.866 75.6583 344.208Z" fill="#FAFAFA"/>
<path d="M84.9103 336.381C83.7881 332.576 82.9519 328.693 82.4087 324.763C83.0372 326.647 83.5276 328.574 83.8757 330.53C84.3623 332.452 84.7081 334.408 84.9103 336.381Z" fill="#FAFAFA"/>
<path d="M94.2552 361.592C93.5928 361.627 92.9286 361.576 92.2794 361.439C89.1381 360.977 86.0598 360.157 83.104 358.997C82.4769 358.791 81.8784 358.506 81.3232 358.149C81.9698 358.272 82.603 358.457 83.2143 358.7C84.3676 359.073 85.9618 359.548 87.7511 360.049C89.5404 360.549 91.1431 360.897 92.3557 361.126C93.0029 361.217 93.6392 361.374 94.2552 361.592Z" fill="#FAFAFA"/>
<path d="M104.779 359.048C104.739 358.354 104.77 357.658 104.872 356.97C104.974 355.69 105.11 353.926 105.186 351.967C105.262 350.008 105.279 348.244 105.288 346.964C105.247 346.268 105.269 345.57 105.355 344.878C105.522 345.558 105.604 346.256 105.601 346.956C105.678 348.236 105.712 350.025 105.601 351.993C105.54 353.67 105.393 355.342 105.16 357.004C105.111 357.698 104.983 358.384 104.779 359.048Z" fill="#FAFAFA"/>
<path d="M145.322 299.739C145.22 299.815 143.507 297.619 141.217 295.083C138.928 292.548 136.926 290.606 137.02 290.504C137.539 290.826 138.018 291.211 138.444 291.649C139.292 292.412 140.386 293.506 141.54 294.787C142.693 296.067 143.668 297.288 144.338 298.179C144.734 298.653 145.064 299.177 145.322 299.739Z" fill="#FAFAFA"/>
<path d="M169.269 278.395C168.128 279.594 166.879 280.687 165.538 281.659C164.289 282.748 162.947 283.724 161.527 284.577C162.674 283.382 163.922 282.29 165.258 281.312C166.507 280.223 167.849 279.247 169.269 278.395Z" fill="#FAFAFA"/>
<path d="M155.93 266.523C155.744 263.819 155.707 261.107 155.82 258.399C155.784 255.69 155.898 252.98 156.159 250.283C156.339 252.988 156.373 255.7 156.261 258.407C156.296 261.116 156.186 263.825 155.93 266.523Z" fill="#FAFAFA"/>
<path d="M194.743 243.83C195.657 241.624 196.702 239.475 197.872 237.394C198.917 235.249 200.092 233.17 201.391 231.17C200.485 233.376 199.44 235.523 198.262 237.597C197.221 239.746 196.045 241.828 194.743 243.83Z" fill="#FAFAFA"/>
<path d="M191.928 269.101C190.182 267.063 188.549 264.931 187.035 262.715C185.403 260.583 183.889 258.363 182.498 256.067C184.249 258.101 185.882 260.233 187.391 262.452C189.019 264.587 190.533 266.806 191.928 269.101Z" fill="#FAFAFA"/>
<path d="M221.065 251.835C219.819 253.528 218.453 255.13 216.978 256.627C215.61 258.224 214.134 259.726 212.56 261.121C213.813 259.431 215.181 257.831 216.655 256.33C218.024 254.736 219.497 253.234 221.065 251.835Z" fill="#FAFAFA"/>
<path d="M212 292.573C210.38 290.628 208.877 288.59 207.497 286.468C205.998 284.431 204.616 282.31 203.359 280.116C204.974 282.061 206.478 284.097 207.862 286.213C209.365 288.25 210.746 290.374 212 292.573Z" fill="#FAFAFA"/>
<path d="M179.615 305.463C180.223 303.41 180.971 301.401 181.853 299.451C182.607 297.443 183.493 295.488 184.508 293.599C183.899 295.655 183.151 297.666 182.269 299.62C181.515 301.625 180.628 303.576 179.615 305.463Z" fill="#FAFAFA"/>
<path d="M157.94 323.432C157.88 323.534 154.132 321.677 149.57 319.277C145.008 316.877 141.353 314.833 141.412 314.731C141.472 314.63 145.211 316.478 149.774 318.887C154.336 321.295 157.991 323.322 157.94 323.432Z" fill="#FAFAFA"/>
<path d="M172.144 354.443C172.433 353.701 172.803 352.993 173.246 352.332C174.229 350.685 175.293 349.089 176.435 347.549C177.579 346.008 178.801 344.528 180.098 343.114C180.601 342.489 181.17 341.921 181.794 341.418C181.353 342.081 180.859 342.707 180.319 343.292C179.386 344.42 178.114 345.997 176.783 347.786C175.451 349.576 174.315 351.255 173.501 352.467C173.099 353.16 172.646 353.82 172.144 354.443Z" fill="#FAFAFA"/>
<path d="M144.508 348.736C144.246 347.207 144.13 345.657 144.16 344.106C144.038 342.558 144.069 341.001 144.253 339.459C144.51 340.992 144.626 342.544 144.601 344.098C144.713 345.644 144.682 347.196 144.508 348.736Z" fill="#FAFAFA"/>
<path d="M170.024 379.4C169.922 379.476 168.421 377.594 166.428 375.397C164.436 373.201 162.723 371.505 162.807 371.412C165.65 373.645 168.091 376.346 170.024 379.4Z" fill="#FAFAFA"/>
<path d="M156.125 391.272C154.497 392.731 152.768 394.074 150.952 395.291C149.225 396.629 147.412 397.853 145.525 398.955C147.153 397.496 148.882 396.153 150.698 394.935C152.423 393.594 154.236 392.37 156.125 391.272Z" fill="#FAFAFA"/>
<path d="M188.324 392.815C187.673 393.014 187.006 393.159 186.331 393.248C185.093 393.485 183.397 393.833 181.548 394.333C179.7 394.834 178.046 395.376 176.867 395.792C176.238 396.06 175.585 396.27 174.917 396.419C175.488 396.04 176.103 395.733 176.749 395.503C178.272 394.869 179.836 394.337 181.43 393.909C183.024 393.479 184.644 393.154 186.28 392.934C186.953 392.806 187.64 392.767 188.324 392.815Z" fill="#FAFAFA"/>
<path d="M201.883 389.992C201.764 389.992 201.035 385.989 200.272 381.003C199.509 376.017 198.983 371.963 199.102 371.946C199.22 371.929 199.95 375.949 200.713 380.935C201.476 385.921 202.002 389.975 201.883 389.992Z" fill="#FAFAFA"/>
<path d="M205.08 357.216C204.289 357.12 203.511 356.941 202.757 356.682C201.341 356.283 199.365 355.664 197.296 354.893C195.227 354.121 193.302 353.332 191.962 352.722C191.222 352.426 190.512 352.06 189.842 351.628C190.613 351.831 191.365 352.1 192.089 352.434C193.454 352.968 195.345 353.706 197.448 354.477C199.551 355.249 201.459 355.91 202.85 356.385C203.616 356.599 204.362 356.877 205.08 357.216Z" fill="#FAFAFA"/>
<path d="M228.714 374.117C227.662 376.139 226.481 378.09 225.178 379.96C223.996 381.91 222.69 383.782 221.269 385.565C222.318 383.542 223.5 381.59 224.805 379.722C225.987 377.772 227.293 375.9 228.714 374.117Z" fill="#FAFAFA"/>
<path d="M224.423 403.619C222.666 402.55 220.986 401.36 219.394 400.057C217.714 398.868 216.121 397.558 214.629 396.139C216.386 397.208 218.066 398.398 219.657 399.701C221.338 400.89 222.931 402.2 224.423 403.619Z" fill="#FAFAFA"/>
<path d="M219.751 338.942C219.332 341.274 218.766 343.576 218.055 345.836C217.487 348.14 216.776 350.405 215.926 352.62C216.348 350.289 216.914 347.986 217.622 345.726C218.189 343.422 218.9 341.156 219.751 338.942Z" fill="#FAFAFA"/>
<path d="M212.848 326.061C209.511 324.662 206.521 322.549 204.088 319.87C204.181 319.777 205.962 321.388 208.388 323.084C210.813 324.78 212.848 325.976 212.848 326.061Z" fill="#FAFAFA"/>
<path d="M223.126 305.446C222.496 306.802 221.738 308.094 220.861 309.304C220.102 310.591 219.219 311.801 218.224 312.917C218.854 311.561 219.612 310.269 220.488 309.058C221.248 307.771 222.131 306.561 223.126 305.446Z" fill="#FAFAFA"/>
<path d="M240.417 266.786C240.838 264.541 241.404 262.326 242.112 260.154C242.69 257.941 243.403 255.766 244.249 253.642C243.826 255.886 243.259 258.101 242.553 260.273C241.982 262.487 241.268 264.663 240.417 266.786Z" fill="#FAFAFA"/>
<path d="M253.552 294.303C252.851 293.937 252.192 293.496 251.585 292.989C250.074 291.831 248.636 290.582 247.277 289.249C245.921 287.919 244.652 286.502 243.478 285.009C242.955 284.415 242.505 283.76 242.138 283.059C242.705 283.603 243.232 284.186 243.715 284.806C244.673 285.908 246.013 287.392 247.591 288.952C249.168 290.513 250.677 291.827 251.78 292.76C252.411 293.226 253.003 293.742 253.552 294.303Z" fill="#FAFAFA"/>
<path d="M264.101 282.728C263.991 282.66 265.195 280.667 266.323 278.038C267.451 275.41 268.095 273.163 268.222 273.196C267.627 276.656 266.214 279.924 264.101 282.728Z" fill="#FAFAFA"/>
<path d="M272.344 304.666C272.481 303.08 272.765 301.51 273.192 299.976C273.469 298.413 273.886 296.877 274.438 295.389C274.305 296.975 274.021 298.545 273.59 300.078C273.318 301.643 272.9 303.178 272.344 304.666Z" fill="#FAFAFA"/>
<path d="M291.932 317.555C290.265 316.519 288.678 315.36 287.183 314.087C285.597 312.93 284.1 311.654 282.706 310.271C284.373 311.307 285.96 312.467 287.455 313.739C289.044 314.893 290.541 316.169 291.932 317.555Z" fill="#FAFAFA"/>
<path d="M305.56 290.47C305.319 291.131 305.015 291.767 304.652 292.37C304.059 293.523 303.27 295.126 302.499 296.949C301.727 298.772 301.116 300.443 300.692 301.672C300.502 302.349 300.253 303.007 299.946 303.64C300.011 302.938 300.16 302.246 300.387 301.579C300.852 299.943 301.418 298.337 302.083 296.771C302.747 295.205 303.512 293.684 304.373 292.217C304.7 291.591 305.098 291.005 305.56 290.47Z" fill="#FAFAFA"/>
<path d="M316.126 276.69C313.402 276.09 310.713 275.342 308.07 274.451C305.384 273.703 302.74 272.811 300.149 271.78C302.871 272.392 305.56 273.142 308.205 274.027C310.889 274.78 313.532 275.669 316.126 276.69Z" fill="#FAFAFA"/>
<path d="M327.421 289.113C326.984 289.736 326.508 290.331 325.997 290.894C323.674 293.731 321.745 296.869 320.264 300.222C319.995 300.934 319.675 301.626 319.306 302.291C319.436 301.534 319.661 300.796 319.976 300.095C321.315 296.64 323.275 293.458 325.759 290.708C326.241 290.106 326.8 289.57 327.421 289.113Z" fill="#FAFAFA"/>
<path d="M332.916 270.127C332.858 269.308 332.858 268.486 332.916 267.667C332.959 266.15 332.984 264.055 332.916 261.731C332.848 259.408 332.679 257.33 332.543 255.795C332.429 254.981 332.372 254.159 332.374 253.336C332.621 254.122 332.783 254.932 332.857 255.753C333.126 257.722 333.293 259.703 333.357 261.689C333.424 263.668 333.384 265.65 333.238 267.625C333.222 268.468 333.114 269.307 332.916 270.127Z" fill="#FAFAFA"/>
<path d="M353.616 269.804C351.928 268.704 350.326 267.476 348.825 266.133C347.216 264.909 345.699 263.568 344.288 262.122C345.973 263.23 347.577 264.457 349.088 265.793C350.695 267.016 352.209 268.356 353.616 269.804Z" fill="#FAFAFA"/>
<path d="M361.816 255.685C361.463 254.931 361.165 254.151 360.926 253.353C360.408 251.903 359.671 249.919 358.772 247.748C357.873 245.577 356.991 243.652 356.329 242.261C355.934 241.528 355.597 240.766 355.32 239.98C355.822 240.649 356.254 241.368 356.609 242.126C357.339 243.482 358.305 245.399 359.153 247.578C360.001 249.758 360.748 251.776 361.197 253.26C361.489 254.044 361.696 254.857 361.816 255.685Z" fill="#FAFAFA"/>
<g opacity="0.3">
<path opacity="0.3" d="M193.115 310.152C189.723 319.082 180.497 323.101 171.915 323.669H171.423C167.515 323.485 163.605 323.979 159.865 325.128C162.172 328.989 165.818 331.867 170.108 333.218C174.398 334.568 179.035 334.295 183.138 332.451C187.241 330.608 190.523 327.322 192.362 323.217C194.202 319.112 194.469 314.475 193.115 310.186V310.152Z" fill="black"/>
</g>
<g opacity="0.3">
<path opacity="0.3" d="M133.416 330.665C135.485 338.382 138.41 347.456 140.48 355.173C142.294 361.957 145.067 369.377 146.882 376.135L147.679 376.059C151.173 360.337 145.237 341.596 133.416 330.665Z" fill="black"/>
</g>
<g opacity="0.3">
<path opacity="0.3" d="M245.072 295.719C241.558 288.492 235.388 282.901 227.849 280.116C232.089 286.222 236.88 293.591 237.364 301.503L243.681 305.132C245.649 303.233 246.259 298.17 245.072 295.719Z" fill="black"/>
</g>
<path d="M154.531 236.13C153.683 236.385 152.871 236.747 152.114 237.207C151.438 237.778 150.842 238.436 150.342 239.166C150.291 239.166 150.342 238.827 150.554 238.361C150.862 237.758 151.309 237.237 151.86 236.843C152.405 236.448 153.035 236.186 153.7 236.079C154.217 236.012 154.531 236.088 154.531 236.13Z" fill="#263238"/>
<path d="M164.86 249.385C164.809 249.385 164.665 249.028 164.614 248.392C164.569 247.555 164.711 246.718 165.029 245.942C165.339 245.161 165.823 244.462 166.445 243.898C166.92 243.474 167.293 243.313 167.293 243.355C166.527 244.168 165.892 245.095 165.411 246.103C165.064 247.163 164.878 248.269 164.86 249.385Z" fill="#263238"/>
<path d="M153.835 248.808C153.78 248.257 153.838 247.7 154.005 247.171C154.651 244.547 156.289 242.277 158.576 240.837C159.022 240.512 159.53 240.282 160.068 240.158C158.482 241.083 157.107 242.331 156.034 243.821C154.96 245.311 154.211 247.01 153.835 248.808Z" fill="#263238"/>
<path d="M146.543 233.078C146.501 233.078 146.653 232.704 147.077 232.23C147.648 231.678 148.35 231.281 149.118 231.078C149.885 230.874 150.692 230.871 151.461 231.068C152.046 231.237 152.309 231.458 152.309 231.509C151.288 231.3 150.235 231.3 149.214 231.509C148.229 231.85 147.321 232.384 146.543 233.078Z" fill="#263238"/>
<path d="M176.655 248.647C176.411 247.948 176.238 247.226 176.138 246.493C175.898 245.795 175.722 245.077 175.612 244.347C176.126 244.918 176.457 245.63 176.562 246.391C176.806 247.119 176.839 247.901 176.655 248.647Z" fill="#263238"/>
<path d="M188.833 248.808C188.253 246.128 186.927 243.668 185.008 241.71C186.227 242.433 187.204 243.501 187.815 244.78C188.555 245.988 188.91 247.393 188.833 248.808Z" fill="#263238"/>
<path d="M193.963 239.327C193.844 239.378 193.522 238.7 192.767 238.267C192.012 237.835 191.283 237.852 191.266 237.725C191.249 237.597 191.436 237.58 191.767 237.563C192.197 237.554 192.621 237.668 192.988 237.894C193.354 238.109 193.65 238.428 193.836 238.81C194.005 239.098 194.014 239.31 193.963 239.327Z" fill="#263238"/>
<path d="M203.707 235.24C203.267 234.957 202.842 234.651 202.435 234.324C201.407 233.644 200.254 233.177 199.043 232.95C197.82 232.733 196.565 232.762 195.354 233.035C194.429 233.256 193.887 233.519 193.853 233.451C194.264 233.104 194.753 232.859 195.277 232.738C196.521 232.356 197.839 232.278 199.12 232.51C200.4 232.741 201.607 233.276 202.638 234.07C203.074 234.379 203.438 234.778 203.707 235.24Z" fill="#263238"/>
<path d="M201.035 227.667C200.214 227.538 199.382 227.478 198.551 227.489C197.733 227.639 196.928 227.852 196.142 228.125C196.788 227.51 197.622 227.131 198.509 227.048C199.397 226.965 200.287 227.183 201.035 227.667Z" fill="#263238"/>
<path d="M155.846 216.525C146.831 216.728 133.908 215.677 128.531 208.426C123.155 201.176 125.487 187.989 128.294 179.425C120.306 170.504 120.662 155.341 129.142 146.827C130.66 145.284 132.424 143.919 133.535 142.062C135.629 138.568 135.01 134.167 135.519 130.113C135.934 126.814 137.133 123.661 139.015 120.92C140.898 118.179 143.41 115.928 146.341 114.356C149.271 112.785 152.536 111.938 155.861 111.886C159.186 111.835 162.475 112.581 165.453 114.061C170.474 109.677 175.697 105.25 181.989 103.037C188.282 100.823 195.973 101.4 200.705 106.09C203.3 108.634 204.945 112.348 208.184 114.01C211.423 115.672 215.485 114.799 219.081 115.647C225.941 117.266 229.732 124.618 231.53 131.436C233.327 138.254 234.218 145.717 238.831 151.051C241.231 153.832 244.512 155.842 246.463 158.945C247.556 160.672 248.182 162.653 248.28 164.695C248.377 166.736 247.942 168.768 247.018 170.59C246.094 172.413 244.712 173.965 243.007 175.093C241.303 176.221 239.335 176.886 237.296 177.025C241.477 182.308 242.384 189.745 240.535 196.223C238.687 202.702 234.82 210.902 228.112 213.022C223.662 214.36 218.876 214.016 214.663 212.056C214.663 212.056 211.178 218.687 195.159 218.043C170.16 217.025 159.662 225.87 155.854 216.491" fill="#263238"/>
<path d="M213.56 186.616C214.731 176.16 213.416 159.174 211.864 145.301C210.499 132.819 201.502 117.843 189.087 119.742L150.588 131.385C148.769 131.662 147.12 132.611 145.968 134.044C144.815 135.478 144.243 137.292 144.363 139.128L152.487 231.153C152.582 232.272 152.984 233.343 153.649 234.248C156.194 237.822 159.684 240.616 163.728 242.318C167.772 244.019 172.211 244.561 176.545 243.881C191.673 241.922 195.065 232.221 195.761 229.126C195.879 228.609 195.931 228.079 195.913 227.549C195.532 215.617 195.311 210.945 195.32 211.03C195.328 211.114 211.211 207.638 213.56 186.616Z" fill="#B78876"/>
<path d="M205.343 159.013C205.381 159.711 205.145 160.397 204.686 160.924C204.227 161.451 203.58 161.779 202.884 161.837C202.544 161.882 202.199 161.858 201.869 161.766C201.539 161.674 201.231 161.516 200.963 161.303C200.695 161.089 200.474 160.823 200.311 160.522C200.149 160.22 200.049 159.889 200.018 159.547C199.978 158.851 200.212 158.167 200.67 157.641C201.128 157.115 201.773 156.789 202.468 156.732C202.808 156.686 203.153 156.709 203.484 156.8C203.814 156.891 204.123 157.047 204.392 157.26C204.66 157.473 204.883 157.738 205.046 158.04C205.21 158.341 205.311 158.672 205.343 159.013Z" fill="#263238"/>
<path d="M209.057 155.986C208.744 156.351 206.641 154.943 203.766 155.087C200.891 155.231 198.839 156.783 198.508 156.427C198.347 156.274 198.661 155.63 199.551 154.917C200.756 153.997 202.217 153.472 203.732 153.416C205.232 153.338 206.718 153.742 207.972 154.57C208.879 155.206 209.21 155.825 209.057 155.986Z" fill="#263238"/>
<path d="M177.927 160.277C177.967 160.974 177.734 161.659 177.276 162.187C176.818 162.714 176.173 163.042 175.477 163.101C175.136 163.147 174.79 163.123 174.459 163.032C174.128 162.941 173.819 162.783 173.55 162.57C173.282 162.356 173.059 162.089 172.896 161.787C172.733 161.485 172.633 161.153 172.602 160.811C172.564 160.114 172.799 159.43 173.256 158.903C173.713 158.376 174.357 158.048 175.053 157.987C175.393 157.941 175.739 157.964 176.07 158.056C176.401 158.147 176.71 158.304 176.979 158.518C177.247 158.732 177.47 158.998 177.633 159.3C177.796 159.603 177.896 159.935 177.927 160.277Z" fill="#263238"/>
<path d="M180.539 156.936C180.225 157.3 178.122 155.901 175.248 156.037C172.373 156.172 170.321 157.733 169.998 157.377C169.837 157.232 170.143 156.579 171.033 155.867C172.24 154.95 173.699 154.426 175.214 154.366C176.714 154.288 178.2 154.692 179.454 155.519C180.361 156.155 180.692 156.774 180.539 156.936Z" fill="#263238"/>
<path d="M191.775 177.042C191.775 176.881 193.531 176.49 196.414 175.982C197.143 175.871 197.83 175.693 197.932 175.185C197.96 174.424 197.756 173.673 197.347 173.031C196.566 171.284 195.761 169.452 194.913 167.536C191.521 159.7 189.036 153.247 189.35 153.12C189.664 152.992 192.674 159.225 196.058 167.061C196.906 168.994 197.66 170.834 198.398 172.598C198.904 173.462 199.087 174.478 198.915 175.464C198.822 175.729 198.668 175.969 198.467 176.164C198.265 176.36 198.021 176.506 197.754 176.592C197.353 176.723 196.937 176.803 196.516 176.83C193.607 177.109 191.792 177.203 191.775 177.042Z" fill="#263238"/>
<path d="M195.337 211.03C185.521 211.631 175.731 209.497 167.056 204.865C167.056 204.865 174.781 219.281 195.583 216.355L195.337 211.03Z" fill="#AA6550"/>
<path d="M190.876 184.038C190.293 183.378 189.553 182.876 188.724 182.58C187.895 182.283 187.005 182.201 186.136 182.342C185.503 182.429 184.895 182.643 184.347 182.971C183.799 183.299 183.323 183.734 182.947 184.25C182.584 184.747 182.383 185.345 182.371 185.96C182.359 186.576 182.536 187.181 182.88 187.693C183.728 188.753 185.339 188.931 186.696 188.473C188.033 187.928 189.249 187.124 190.274 186.107C190.583 185.873 190.847 185.586 191.054 185.259C191.153 185.096 191.201 184.907 191.192 184.717C191.183 184.527 191.117 184.343 191.003 184.19" fill="#AA6550"/>
<path d="M183.388 179.425C183.855 179.374 184.007 182.503 186.78 184.597C189.553 186.692 192.869 186.2 192.911 186.633C192.962 186.828 192.199 187.277 190.791 187.379C188.969 187.483 187.168 186.943 185.703 185.852C184.292 184.803 183.343 183.246 183.058 181.511C182.863 180.213 183.168 179.416 183.388 179.425Z" fill="#263238"/>
<path d="M181.404 151.067C181.15 151.865 178.258 151.627 174.9 152.187C171.542 152.746 168.854 153.798 168.37 153.12C168.15 152.789 168.599 152.034 169.659 151.22C171.088 150.223 172.724 149.565 174.444 149.295C176.165 149.024 177.924 149.149 179.589 149.66C180.853 150.101 181.472 150.694 181.404 151.067Z" fill="#263238"/>
<path d="M208.447 150.889C207.972 151.568 205.954 150.983 203.571 151.059C201.188 151.135 199.187 151.703 198.686 151.059C198.466 150.737 198.754 150.067 199.611 149.363C200.761 148.566 202.123 148.128 203.523 148.107C204.923 148.086 206.297 148.482 207.472 149.244C208.345 149.897 208.659 150.559 208.447 150.889Z" fill="#263238"/>
<path d="M161.578 119.386C161.662 121.483 162.207 123.536 163.174 125.398C164.142 127.26 165.507 128.887 167.174 130.162C168.841 131.437 170.768 132.329 172.818 132.775C174.869 133.221 176.992 133.21 179.038 132.742C182.201 132.021 185.627 130.258 188.459 131.835C191.444 133.531 191.75 137.864 194.395 139.984C198.211 143.02 203.927 139.764 208.659 140.942C212.314 141.858 214.722 145.182 217.241 147.998C219.759 150.813 223.473 153.391 227.035 152.161C226.785 148.915 226.162 145.708 225.178 142.604C224.187 139.463 222.133 136.764 219.369 134.972C217.834 134.065 216.079 133.548 214.646 132.488C211.542 130.207 210.66 126.026 208.71 122.736C207.399 120.618 205.602 118.843 203.468 117.558C201.334 116.274 198.924 115.516 196.439 115.35C192.318 115.112 188.137 116.528 184.092 115.697C181.107 115.078 178.436 113.272 175.417 112.831C169.532 111.983 164.291 116.41 160.238 120.768" fill="#263238"/>
<path d="M149.74 165.704C149.409 165.56 136.519 161.795 136.943 174.947C137.367 188.1 150.511 184.971 150.511 184.589C150.511 184.207 149.74 165.704 149.74 165.704Z" fill="#B78876"/>
<path d="M146.314 179.755C146.255 179.755 146.093 179.916 145.712 180.111C145.178 180.354 144.571 180.384 144.016 180.196C142.608 179.73 141.37 177.567 141.226 175.193C141.16 174.068 141.342 172.941 141.76 171.894C141.873 171.477 142.087 171.093 142.383 170.776C142.678 170.46 143.047 170.221 143.456 170.08C143.717 170 143.998 170.015 144.249 170.122C144.501 170.229 144.706 170.421 144.83 170.665C145.016 171.029 144.94 171.292 145.016 171.309C145.093 171.326 145.288 171.08 145.161 170.546C145.089 170.207 144.896 169.905 144.618 169.698C144.435 169.568 144.229 169.476 144.011 169.427C143.792 169.377 143.566 169.371 143.346 169.41C142.808 169.532 142.312 169.79 141.903 170.16C141.495 170.53 141.188 170.999 141.014 171.521C140.49 172.68 140.258 173.949 140.335 175.219C140.505 177.864 141.938 180.307 143.863 180.79C144.22 180.881 144.592 180.891 144.953 180.819C145.314 180.747 145.655 180.595 145.949 180.374C146.297 180.069 146.356 179.772 146.314 179.755Z" fill="#AA6550"/>
<path d="M144.491 164.797C146.682 165.279 148.956 165.243 151.132 164.692C153.307 164.14 155.324 163.088 157.021 161.62C158.719 160.152 160.05 158.307 160.908 156.234C161.767 154.16 162.13 151.915 161.968 149.677C166.818 149.439 171.007 145.691 172.932 141.197C174.857 136.702 174.866 131.674 174.272 126.84C174.218 125.7 173.877 124.591 173.28 123.618C171.839 121.616 168.904 121.633 166.445 121.845C160.111 122.397 153.581 123.016 147.993 126.085C142.404 129.155 137.986 135.252 138.987 141.527C139.479 144.597 141.183 147.616 140.42 150.627C139.852 152.865 137.969 154.68 137.749 156.978C137.714 157.868 137.871 158.755 138.209 159.578C138.547 160.402 139.058 161.144 139.708 161.752C141.01 162.966 142.484 163.981 144.084 164.763" fill="#263238"/>
<path d="M146.84 185.742C149.384 186.149 152.029 186.904 153.479 189.041C154.201 190.112 154.698 191.317 154.941 192.585C155.185 193.853 155.169 195.157 154.896 196.418C156.939 196.317 158.61 198.114 159.39 199.997C161.374 204.848 159.136 210.741 155.006 213.972C153.556 215.1 151.766 215.99 149.918 215.744C148.069 215.498 146.823 214.345 145.559 213.2C143.439 211.398 141.57 209.319 140.005 207.018C138.381 204.814 137.577 202.112 137.732 199.378C137.887 196.644 138.99 194.05 140.853 192.043C142.549 190.025 144.618 187.243 146.789 185.751" fill="#263238"/>
<path d="M129.49 144.92C130.14 145.13 130.835 145.156 131.499 144.996C132.267 144.782 132.983 144.413 133.602 143.91C134.423 143.229 135.165 142.458 135.816 141.612C136.619 140.562 137.637 139.695 138.801 139.068C140.149 138.415 141.76 138.551 143.303 138.695C144.092 138.784 144.889 138.784 145.678 138.695C146.486 138.575 147.261 138.286 147.95 137.847C149.415 136.887 150.588 135.544 151.342 133.963C152.078 132.363 152.704 130.714 153.217 129.028C153.732 127.448 154.396 125.92 155.201 124.466C156.555 121.948 158.619 119.884 161.137 118.53C162.839 117.644 164.751 117.242 166.666 117.368C167.363 117.399 168.05 117.554 168.693 117.826C168.022 117.682 167.342 117.585 166.657 117.538C164.784 117.479 162.929 117.917 161.281 118.81C158.86 120.172 156.886 122.208 155.599 124.669C154.815 126.108 154.17 127.619 153.674 129.181C153.159 130.888 152.524 132.557 151.775 134.175C150.998 135.823 149.78 137.223 148.256 138.22C147.509 138.668 146.677 138.957 145.813 139.068C144.993 139.153 144.166 139.153 143.346 139.068C141.785 138.907 140.268 138.78 139.029 139.365C137.902 139.971 136.914 140.805 136.129 141.816C135.449 142.657 134.678 143.422 133.831 144.097C133.173 144.602 132.416 144.963 131.61 145.157C131.1 145.282 130.567 145.282 130.058 145.157C129.856 145.111 129.664 145.031 129.49 144.92Z" fill="#455A64"/>
<path d="M122.705 160.616C122.696 160.551 122.696 160.486 122.705 160.421C122.675 160.233 122.675 160.041 122.705 159.853C122.798 159.124 123.004 158.414 123.316 157.75C123.785 156.686 124.368 155.677 125.054 154.739C125.475 154.143 125.937 153.576 126.437 153.043C126.993 152.437 127.636 151.917 128.345 151.5C129.204 151.088 130.143 150.871 131.096 150.863C132.049 150.856 132.991 151.059 133.857 151.458C134.824 151.859 135.732 152.393 136.553 153.043C137.411 153.702 138.335 154.27 139.309 154.739C141.386 155.766 143.714 156.175 146.017 155.918C148.489 155.625 150.747 154.369 152.301 152.424C153.836 150.431 154.2 147.684 156.151 145.929C156.642 145.508 157.222 145.204 157.847 145.038C158.439 144.886 159.049 144.812 159.661 144.818C160.793 144.87 161.926 144.842 163.053 144.733C165.133 144.439 167.11 143.642 168.811 142.409C170.301 141.344 171.53 139.955 172.407 138.347C173.672 135.995 174.181 133.309 173.865 130.656C173.778 129.94 173.636 129.231 173.441 128.536C173.349 128.297 173.278 128.05 173.229 127.798C173.662 128.694 173.948 129.653 174.077 130.639C174.327 132.31 174.242 134.014 173.826 135.651C173.41 137.288 172.672 138.827 171.655 140.176C170.638 141.525 169.363 142.658 167.904 143.509C166.444 144.36 164.83 144.911 163.155 145.131C162.006 145.253 160.85 145.29 159.695 145.242C159.124 145.238 158.554 145.306 157.999 145.445C157.444 145.612 156.934 145.902 156.507 146.293C154.709 147.871 154.327 150.593 152.725 152.721C151.099 154.761 148.734 156.077 146.144 156.384C143.757 156.645 141.346 156.213 139.199 155.138C138.202 154.656 137.258 154.071 136.384 153.391C135.591 152.757 134.715 152.235 133.78 151.839C132.964 151.457 132.074 151.26 131.173 151.26C130.272 151.26 129.381 151.457 128.565 151.839C127.877 152.234 127.251 152.728 126.708 153.306C126.21 153.816 125.746 154.357 125.317 154.926C124.63 155.842 124.036 156.825 123.545 157.86C123.217 158.504 122.986 159.193 122.858 159.904C122.837 160.09 122.837 160.277 122.858 160.463C122.815 160.522 122.764 160.573 122.705 160.616Z" fill="#455A64"/>
<path d="M231.97 132.691C231.595 131.83 231.054 131.052 230.376 130.402C229.079 129.147 226.577 128.01 223.346 127.731C221.727 127.578 219.954 127.578 218.012 127.4C215.933 127.283 213.912 126.67 212.119 125.611C210.247 124.293 208.627 122.65 207.336 120.76C205.981 118.768 204.423 116.921 202.689 115.248C200.863 113.694 198.651 112.662 196.287 112.263C194.074 111.89 191.821 111.811 189.587 112.026C187.45 112.195 185.432 112.526 183.533 112.874C181.633 113.221 179.861 113.45 178.233 113.594C175.655 113.906 173.042 113.777 170.507 113.213C169.581 113.001 168.684 112.677 167.836 112.246C168.074 112.304 168.306 112.381 168.532 112.475C168.809 112.582 169.092 112.673 169.38 112.746C169.764 112.865 170.155 112.965 170.55 113.043C173.065 113.53 175.641 113.613 178.182 113.289C179.801 113.12 181.574 112.84 183.456 112.517C185.339 112.195 187.374 111.839 189.537 111.669C191.798 111.443 194.079 111.517 196.321 111.89C198.762 112.302 201.047 113.365 202.935 114.968C204.696 116.66 206.274 118.533 207.641 120.556C208.901 122.406 210.477 124.02 212.297 125.322C214.034 126.359 215.994 126.964 218.012 127.086C219.912 127.273 221.701 127.298 223.338 127.468C226.611 127.79 229.155 129.003 230.453 130.334C230.959 130.823 231.375 131.397 231.682 132.03C231.756 132.199 231.822 132.371 231.877 132.547C231.951 132.643 231.982 132.691 231.97 132.691Z" fill="#455A64"/>
<path d="M241.68 153.917C241.68 153.917 241.612 153.917 241.468 154.001C241.26 154.08 241.047 154.148 240.832 154.205C240.002 154.421 239.143 154.499 238.288 154.434C237.663 154.378 237.048 154.244 236.456 154.035C235.76 153.778 235.099 153.433 234.489 153.009C233.029 151.933 231.795 150.578 230.86 149.024C229.791 147.328 229.164 145.191 228.095 143.139C227.568 142.076 226.833 141.13 225.933 140.357C224.937 139.586 223.776 139.058 222.541 138.814C219.997 138.237 217.224 138.475 214.357 138.059C212.12 137.708 209.987 136.873 208.106 135.612C206.226 134.351 204.643 132.694 203.469 130.758C202.743 129.509 201.953 128.297 201.103 127.128C200.272 126.025 199.175 125.15 197.915 124.584C196.696 124.07 195.401 123.76 194.082 123.669C191.604 123.605 189.125 123.713 186.662 123.991C181.278 124.405 175.932 122.813 171.652 119.522C170.72 118.835 169.867 118.047 169.108 117.173C169.172 117.215 169.232 117.263 169.286 117.317L169.77 117.766C172.704 120.476 176.307 122.355 180.208 123.211C182.314 123.661 184.474 123.801 186.619 123.626C189.098 123.327 191.594 123.205 194.09 123.261C195.459 123.352 196.803 123.671 198.067 124.203C199.406 124.776 200.574 125.684 201.459 126.84C202.319 128.022 203.117 129.248 203.851 130.512C204.624 131.772 205.575 132.915 206.675 133.904C208.852 135.863 211.55 137.15 214.442 137.61C217.232 138.034 220.031 137.805 222.651 138.398C223.938 138.666 225.146 139.229 226.179 140.043C227.114 140.851 227.876 141.841 228.417 142.952C229.494 145.055 230.113 147.192 231.131 148.846C232.028 150.377 233.218 151.717 234.633 152.789C235.212 153.214 235.841 153.564 236.507 153.832C237.078 154.046 237.673 154.186 238.28 154.247C239.424 154.341 240.575 154.229 241.68 153.917Z" fill="#455A64"/>
<path d="M235.481 206.255C236.13 205.635 236.7 204.937 237.177 204.178C238.352 202.034 238.912 199.607 238.797 197.165C238.774 195.486 238.458 193.825 237.864 192.255C237.531 191.39 237.083 190.575 236.533 189.829C235.935 189.039 235.268 188.304 234.54 187.633C233.064 186.225 231.3 184.97 229.647 183.393C227.843 181.868 226.503 179.867 225.78 177.618C225.509 176.451 225.451 175.244 225.61 174.057C225.746 172.886 226 171.776 226.229 170.665C226.472 169.605 226.631 168.527 226.704 167.442C226.764 166.416 226.626 165.389 226.297 164.415C225.599 162.627 224.451 161.05 222.965 159.836C221.675 158.744 220.327 157.722 218.928 156.774C216.845 155.454 215.053 153.723 213.662 151.686C213.31 151.107 213.026 150.49 212.814 149.846C212.745 149.622 212.697 149.392 212.67 149.159C212.932 150.014 213.303 150.832 213.772 151.593C215.198 153.579 216.999 155.267 219.072 156.562C220.495 157.495 221.862 158.509 223.168 159.598C224.716 160.846 225.913 162.473 226.645 164.322C226.995 165.346 227.148 166.428 227.094 167.51C227.019 168.615 226.861 169.712 226.62 170.792C226.17 172.971 225.593 175.278 226.179 177.533C226.875 179.704 228.168 181.635 229.91 183.105C231.529 184.614 233.302 185.886 234.786 187.345C235.528 188.034 236.206 188.789 236.812 189.601C237.376 190.384 237.833 191.24 238.169 192.145C238.767 193.754 239.074 195.456 239.077 197.173C239.17 199.663 238.553 202.128 237.296 204.279C237.092 204.613 236.86 204.928 236.6 205.221C236.427 205.444 236.231 205.648 236.015 205.831C235.852 205.99 235.673 206.133 235.481 206.255Z" fill="#455A64"/>
<path d="M129.21 179.662C128.713 179.16 128.318 178.567 128.048 177.915C127.276 176.148 127.092 174.181 127.522 172.301C127.854 170.916 128.46 169.61 129.303 168.461C130.146 167.312 131.21 166.343 132.432 165.611C133.85 164.709 135.418 164.068 137.062 163.72C138.816 163.372 140.6 163.193 142.388 163.185C146.017 163.109 149.536 163.185 152.479 162.1C155.089 161.146 157.36 159.444 159.008 157.207C160.138 155.711 160.97 154.013 161.459 152.204C161.79 150.915 161.832 150.169 161.883 150.177C161.906 150.354 161.906 150.534 161.883 150.711C161.844 151.228 161.767 151.741 161.654 152.246C161.099 154.557 159.987 156.698 158.416 158.482C156.845 160.265 154.862 161.639 152.64 162.482C149.604 163.626 146.026 163.55 142.413 163.626C140.654 163.635 138.899 163.808 137.172 164.144C135.577 164.476 134.053 165.088 132.67 165.95C130.275 167.366 128.539 169.675 127.844 172.369C127.403 174.19 127.533 176.103 128.218 177.847C128.503 178.476 128.835 179.082 129.21 179.662Z" fill="#455A64"/>
<path d="M161.213 172.827L155.837 184.64C155.837 184.64 164.911 199.488 171.949 204.508C176.019 207.461 180.741 209.388 185.714 210.126C190.688 210.864 195.766 210.392 200.518 208.748C200.518 208.748 215.697 203.135 214.552 176.601C214.552 176.601 204.292 172.776 197.754 172.183C191.215 171.589 176.681 175.575 171.16 174.862C167.803 174.404 164.48 173.724 161.213 172.827Z" fill="#F5F5F5"/>
<path d="M161.12 173.099C158.979 171.943 156.909 170.66 154.921 169.257C152.861 167.962 150.879 166.546 148.985 165.017C151.126 166.172 153.196 167.455 155.184 168.859C157.244 170.154 159.226 171.57 161.12 173.099Z" fill="#263238"/>
<path d="M155.879 184.36C154.634 184.703 153.354 184.905 152.063 184.962C150.787 185.161 149.493 185.218 148.205 185.132C149.45 184.788 150.73 184.583 152.021 184.521C153.297 184.322 154.591 184.268 155.879 184.36Z" fill="#263238"/>
<path d="M209.074 199.454C208.912 199.553 208.738 199.633 208.557 199.692C208.209 199.836 207.709 200.048 207.039 200.302C205.145 200.969 203.203 201.491 201.23 201.863C198.293 202.414 195.304 202.641 192.318 202.541C188.661 202.413 185.037 201.803 181.54 200.726C179.729 200.165 177.961 199.477 176.248 198.666C174.663 197.901 173.121 197.051 171.627 196.122C168.76 194.358 166.293 192.602 164.207 191.178C162.12 189.753 160.399 188.634 159.186 187.879L157.796 187.031C157.624 186.945 157.464 186.837 157.321 186.709C157.5 186.772 157.673 186.851 157.838 186.946C158.169 187.116 158.686 187.37 159.28 187.726C160.509 188.422 162.265 189.507 164.368 190.906C166.471 192.306 168.964 194.036 171.822 195.765C173.255 196.613 174.79 197.461 176.426 198.267C178.124 199.063 179.875 199.74 181.667 200.294C187.978 202.244 194.662 202.674 201.171 201.549C203.137 201.204 205.077 200.728 206.98 200.124L208.523 199.598C208.702 199.533 208.886 199.485 209.074 199.454Z" fill="#E0E0E0"/>
<path d="M212.899 188.04C212.731 188.094 212.557 188.125 212.381 188.134L210.872 188.32C209.558 188.464 207.658 188.642 205.309 188.82C199.177 189.314 193.014 189.314 186.882 188.82C180.737 188.323 174.688 186.988 168.904 184.852C167.165 184.195 165.466 183.436 163.816 182.579C163.223 182.291 162.782 182.019 162.477 181.85C162.32 181.772 162.173 181.678 162.036 181.57C162.205 181.616 162.368 181.685 162.519 181.774C162.841 181.918 163.291 182.155 163.893 182.427C165.08 182.995 166.818 183.758 169.032 184.564C174.812 186.602 180.832 187.884 186.941 188.38C193.053 188.861 199.192 188.9 205.309 188.498L210.872 188.134L212.39 188.04C212.559 188.023 212.73 188.023 212.899 188.04Z" fill="#263238"/>
<path d="M212.195 181.4C207.26 179.789 202.273 178.195 197.1 177.746C191.928 177.296 186.984 177.975 181.93 178.297C176.876 178.619 171.237 178.297 166.505 176.499H165.233C179.679 184.069 196.413 186.035 212.22 182.02C212.356 182.02 212.517 181.926 212.551 181.791C212.585 181.655 212.364 181.46 212.195 181.4Z" fill="#E0E0E0"/>
<path d="M214.205 181.562C214.024 181.539 213.845 181.503 213.671 181.451L212.17 181.078C210.864 180.747 208.981 180.23 206.641 179.704C203.911 179.045 201.144 178.547 198.356 178.212C194.935 177.863 191.491 177.806 188.061 178.042C184.398 178.237 180.895 178.492 177.707 178.441C174.873 178.44 172.048 178.118 169.286 177.483C167.426 177.045 165.629 176.376 163.935 175.49C163.342 175.159 162.892 174.896 162.604 174.693C162.446 174.601 162.298 174.493 162.163 174.371C162.163 174.328 162.808 174.744 164.012 175.337C165.719 176.154 167.514 176.771 169.363 177.177C172.105 177.763 174.903 178.047 177.707 178.025C180.878 178.025 184.364 177.788 188.036 177.593C191.489 177.359 194.956 177.427 198.398 177.796C201.202 178.151 203.981 178.683 206.717 179.391C209.057 179.976 210.957 180.519 212.212 180.9L213.696 181.358C213.873 181.405 214.044 181.473 214.205 181.562Z" fill="#263238"/>
<path d="M161.459 184.759C165.886 187.303 170.228 190.092 175.078 191.619C184.713 194.732 194.83 196.088 204.945 195.621C205.725 195.621 206.759 195.757 206.844 196.529C206.929 197.3 206.14 197.648 205.47 197.843C203.257 198.436 200.978 198.743 198.686 198.759C191.902 199.041 185.125 198.046 178.708 195.825C172.272 193.594 166.459 189.864 161.748 184.945" fill="#E0E0E0"/>
<path d="M202.672 194.773C201.878 195.049 201.056 195.233 200.221 195.325C198.22 195.622 196.198 195.753 194.175 195.715C192.151 195.675 190.134 195.462 188.146 195.079C187.316 194.954 186.503 194.738 185.72 194.434C186.555 194.496 187.385 194.609 188.205 194.773C192.17 195.361 196.194 195.441 200.179 195.011C201.004 194.879 201.837 194.799 202.672 194.773Z" fill="#263238"/>
<path d="M120.636 350.517C120.789 350.797 124.198 353.443 124.198 353.443L130.448 351.187L138.249 355.173C138.249 355.173 145.254 355.91 145.313 358.437C145.372 360.964 149.477 373.379 144.151 381.876C138.826 390.373 135.052 393.188 135.052 393.188L116.125 375.508L110.308 374.312L120.636 350.517Z" fill="#B78876"/>
<path d="M308.189 66.7594C300.322 66.7568 292.625 69.043 286.036 73.3394C279.447 77.6358 274.25 83.7566 271.079 90.9555C267.909 98.1545 266.901 106.12 268.18 113.882C269.458 121.644 272.968 128.866 278.28 134.667C278.441 134.845 278.619 135.015 278.788 135.193L271.097 154.909L295.689 146.251L295.748 145.895C299.666 147.15 303.788 148.761 308.121 148.761C330.508 148.761 348.706 129.689 348.706 107.294C348.706 96.5464 344.438 86.2388 336.84 78.6376C329.242 71.0365 318.936 66.7639 308.189 66.7594Z" fill="white"/>
<path d="M308.146 67.3361C308.389 67.3118 308.633 67.3118 308.875 67.3361L311.004 67.3954C312.159 67.4145 313.31 67.528 314.447 67.7346C315.125 67.8364 315.863 67.9042 316.643 68.0654L319.085 68.6674C325.163 70.3295 330.776 73.3699 335.488 77.5527C340.2 81.7355 343.885 86.948 346.256 92.7856C348.628 98.6232 349.622 104.929 349.161 111.213C348.701 117.497 346.798 123.59 343.601 129.02C339.051 136.736 332.117 142.766 323.843 146.2C319.486 147.998 314.848 149.02 310.139 149.219C305.293 149.517 300.434 148.913 295.808 147.438L295.384 147.302H295.715L271.758 155.528L270.783 155.867L271.097 154.884L277.296 134.956L277.398 135.43C273.145 130.674 270.061 124.991 268.393 118.832C266.725 112.674 266.518 106.211 267.79 99.9586C268.842 94.6749 270.941 89.6551 273.963 85.195C276.558 81.3946 279.764 78.0506 283.452 75.2988C285.035 74.1142 286.695 73.0376 288.422 72.0764C289.975 71.2533 291.575 70.52 293.213 69.8801C294.616 69.3239 296.055 68.8649 297.521 68.5063C298.734 68.1656 299.97 67.9077 301.218 67.7346C302.337 67.5905 303.33 67.4209 304.186 67.3446L306.365 67.2767H307.697C307.846 67.2582 307.997 67.2582 308.146 67.2767C308 67.3171 307.849 67.3399 307.697 67.3446L306.374 67.4548L304.211 67.599C303.363 67.7007 302.38 67.8958 301.277 68.0654C300.044 68.2654 298.826 68.5487 297.631 68.9134C296.185 69.2863 294.768 69.7624 293.391 70.338C291.792 70.9844 290.229 71.7176 288.71 72.5343C287.017 73.5193 285.391 74.6156 283.842 75.8161C280.242 78.5583 277.119 81.8762 274.599 85.6359C271.679 90.0342 269.661 94.969 268.663 100.154C267.45 106.264 267.675 112.572 269.321 118.58C270.966 124.587 273.987 130.13 278.144 134.769L278.33 134.981L278.246 135.252C276.27 141.646 274.201 148.32 272.072 155.214L271.402 154.57L295.35 146.259L295.519 146.2L295.689 146.251L296.105 146.387C300.613 147.822 305.348 148.412 310.071 148.125C314.659 147.932 319.179 146.942 323.427 145.199C331.511 141.863 338.295 135.995 342.762 128.477C347.986 119.604 349.636 109.074 347.373 99.0288C345.111 88.9834 339.108 80.1768 330.584 74.3999C327.024 72.0063 323.105 70.1944 318.975 69.0321L316.567 68.3876C315.804 68.2095 315.074 68.1332 314.404 68.006C313.286 67.7794 312.152 67.6348 311.012 67.5735L308.892 67.4124C308.642 67.4119 308.392 67.3864 308.146 67.3361Z" fill="#263238"/>
<path d="M284.063 111L290.364 104.699L302.524 115.502L326.378 92.5386L332.238 98.8477L301.625 127.654L284.063 111Z" fill="#112854"/>
<path d="M331.051 364.136C329.024 366.909 325.208 365.891 323.47 364.136C321.731 362.381 321.036 359.896 320.408 357.479C318.967 352.026 317.517 346.294 318.797 340.799C319.119 339.131 319.89 337.583 321.027 336.322C321.602 335.701 322.33 335.242 323.139 334.992C323.947 334.742 324.807 334.709 325.632 334.897C327.557 335.448 328.71 337.373 329.541 339.188C331.981 344.557 333.192 350.404 333.086 356.3C333.035 359.039 332.653 361.906 331.051 364.136Z" fill="#ACACAC"/>
<g opacity="0.2">
<path opacity="0.2" d="M331.051 364.136C329.024 366.909 325.208 365.891 323.47 364.136C321.731 362.381 321.036 359.896 320.408 357.479C318.967 352.026 317.517 346.294 318.797 340.799C319.119 339.131 319.89 337.583 321.027 336.322C321.602 335.701 322.33 335.242 323.139 334.992C323.947 334.742 324.807 334.709 325.632 334.897C327.557 335.448 328.71 337.373 329.541 339.188C331.981 344.557 333.192 350.404 333.086 356.3C333.035 359.039 332.653 361.906 331.051 364.136Z" fill="black"/>
</g>
<path d="M323.359 378.196C320.091 376.571 316.388 376.036 312.793 376.669C310.86 376.949 308.842 377.517 307.502 378.891C306.162 380.265 305.857 382.843 307.332 384.115C308.287 384.792 309.447 385.116 310.614 385.031C313.421 385.031 316.55 384.632 318.738 386.37C319.993 387.354 320.807 388.974 322.325 389.483C323.087 389.675 323.891 389.613 324.615 389.307C325.338 389.001 325.943 388.467 326.336 387.787C327.09 386.396 327.284 384.77 326.879 383.241C326.719 382.187 326.318 381.183 325.708 380.308C325.098 379.433 324.294 378.71 323.359 378.196Z" fill="#ACACAC"/>
<path d="M336.376 368.257C334.29 365.671 333.968 361.965 334.986 358.802C336.139 355.666 338.134 352.908 340.752 350.831C343.725 348.296 347.164 346.366 350.877 345.149C352.316 344.607 353.855 344.381 355.388 344.488C356.154 344.55 356.894 344.798 357.542 345.21C358.191 345.623 358.729 346.187 359.111 346.854C360.12 348.88 359.052 351.289 357.924 353.256C355.924 356.711 353.656 360.003 351.14 363.101C349.122 365.645 346.807 368.054 343.788 369.131C340.769 370.208 337.648 369.979 336.105 367.893" fill="#ACACAC"/>
<path d="M330.254 406.536C330.156 406.116 330.105 405.687 330.101 405.255C330.033 404.323 329.94 403.152 329.838 401.753C329.704 400.033 329.48 398.32 329.168 396.623C328.766 394.551 328.199 392.515 327.472 390.534C326.753 388.558 325.753 386.696 324.504 385.005C323.494 383.623 322.187 382.484 320.68 381.673C319.655 381.139 318.554 380.77 317.415 380.579C316.985 380.551 316.559 380.48 316.143 380.367C316.574 380.32 317.009 380.32 317.44 380.367C318.619 380.488 319.767 380.815 320.832 381.333C322.422 382.139 323.806 383.3 324.877 384.725C326.173 386.447 327.207 388.35 327.947 390.373C328.69 392.381 329.257 394.449 329.643 396.555C329.937 398.275 330.127 400.011 330.211 401.753C330.287 403.237 330.304 404.441 330.304 405.272C330.329 405.694 330.312 406.117 330.254 406.536Z" fill="#ACACAC"/>
<path d="M330.067 403.873C330.043 403.676 330.043 403.477 330.067 403.28C330.067 402.83 330.067 402.27 330.109 401.584C330.109 400.108 330.194 397.98 330.169 395.342C330.169 390.076 329.864 382.8 329.16 374.795C328.456 366.79 327.464 359.574 326.497 354.401C326.268 353.103 326.039 351.933 325.827 350.907C325.615 349.881 325.445 348.999 325.276 348.278C325.106 347.557 325.013 347.057 324.911 346.625C324.858 346.434 324.83 346.237 324.826 346.04C324.915 346.217 324.98 346.405 325.021 346.599C325.14 347.023 325.293 347.566 325.471 348.236C325.649 348.906 325.886 349.822 326.115 350.848C326.344 351.874 326.616 353.036 326.862 354.325C328.17 361.078 329.112 367.898 329.685 374.753C330.389 382.775 330.627 390.068 330.533 395.342C330.533 397.98 330.406 400.117 330.305 401.592C330.245 402.279 330.203 402.839 330.16 403.288C330.159 403.487 330.128 403.684 330.067 403.873Z" fill="#ACACAC"/>
<path d="M330.347 389.813C330.313 389.222 330.33 388.629 330.398 388.041C330.531 386.434 330.746 384.835 331.042 383.25C331.479 380.9 332.045 378.575 332.738 376.288C333.575 373.481 334.612 370.737 335.842 368.079C337.978 363.177 340.99 358.706 344.729 354.884C345.377 354.231 346.065 353.619 346.79 353.053C347.112 352.798 347.392 352.535 347.638 352.34L348.435 351.814C348.915 351.467 349.423 351.158 349.953 350.89C348.202 352.2 346.534 353.616 344.958 355.13C341.344 358.991 338.414 363.439 336.291 368.283C335.103 370.929 334.091 373.651 333.264 376.432C332.416 378.976 331.882 381.342 331.449 383.326C331.017 385.31 330.796 386.939 330.644 388.066C330.591 388.656 330.492 389.24 330.347 389.813Z" fill="#ACACAC"/>
</svg>
