<svg width="512" height="512" viewBox="0 0 512 512" fill="none" xmlns="http://www.w3.org/2000/svg">
<g clip-path="url(#clip0)">
<path d="M344.276 142.301L412.602 73.9752L438.025 99.3987L344.276 193.148L167.724 318.852L5.29666 481.28C-1.65633 488.312 -1.62435 499.639 5.36824 506.632C12.3608 513.624 23.6881 513.656 30.7201 506.703L167.724 369.699L344.276 142.301Z" fill="#112753"/>
<path d="M344.276 308.966V423.724C344.258 472.47 304.746 511.982 256 512C251.623 512.005 247.254 511.651 242.935 510.941C242.847 511.029 242.759 511.029 242.582 510.941C199.531 504.315 167.746 467.282 167.724 423.724V308.966H344.276Z" fill="#67B9CC"/>
<path d="M317.793 308.966V423.724C317.771 467.282 285.986 504.315 242.935 510.941C242.847 511.029 242.759 511.029 242.582 510.941C199.531 504.315 167.746 467.282 167.724 423.724V308.966H317.793Z" fill="#90BAE1"/>
<path d="M344.276 70.6207H167.724V326.621H344.276V70.6207Z" fill="#9FC9D3"/>
<path d="M317.793 70.6207H167.724V326.621H317.793V70.6207Z" fill="#B0D3F0"/>
<path d="M361.931 8.82759V52.9655C361.903 62.7043 354.015 70.5921 344.276 70.6207H167.724C157.985 70.5921 150.098 62.7043 150.069 52.9655V8.82759C150.083 3.95808 154.027 0.0140605 158.897 0H353.104C357.973 0.0140605 361.917 3.95808 361.931 8.82759Z" fill="#BDC3C7"/>
<path d="M335.448 8.82759V52.9655C335.42 62.7043 327.532 70.5921 317.793 70.6207H167.724C157.985 70.5921 150.098 62.7043 150.069 52.9655V8.82759C150.083 3.95808 154.027 0.0140605 158.897 0H326.621C331.49 0.0140605 335.434 3.95808 335.448 8.82759Z" fill="#E6E7E8"/>
<path d="M229.517 467.862H211.862C206.987 467.862 203.035 463.91 203.035 459.034C203.035 454.159 206.987 450.207 211.862 450.207H220.69V114.759H211.862C206.987 114.759 203.035 110.806 203.035 105.931C203.035 101.056 206.987 97.1034 211.862 97.1034H229.517C234.393 97.1034 238.345 101.056 238.345 105.931V459.034C238.345 463.91 234.393 467.862 229.517 467.862Z" fill="#4482C3"/>
<path d="M229.517 158.897H211.862C206.987 158.897 203.035 154.944 203.035 150.069C203.035 145.194 206.987 141.241 211.862 141.241H229.517C234.393 141.241 238.345 145.194 238.345 150.069C238.345 154.944 234.393 158.897 229.517 158.897Z" fill="#4482C3"/>
<path d="M229.517 203.034H211.862C206.987 203.034 203.035 199.082 203.035 194.207C203.035 189.332 206.987 185.379 211.862 185.379H229.517C234.393 185.379 238.345 189.332 238.345 194.207C238.345 199.082 234.393 203.034 229.517 203.034Z" fill="#4482C3"/>
<path d="M229.517 247.172H211.862C206.987 247.172 203.035 243.22 203.035 238.345C203.035 233.469 206.987 229.517 211.862 229.517H229.517C234.393 229.517 238.345 233.469 238.345 238.345C238.345 243.22 234.393 247.172 229.517 247.172Z" fill="#4482C3"/>
<path d="M229.517 291.31H211.862C206.987 291.31 203.035 287.358 203.035 282.483C203.035 277.607 206.987 273.655 211.862 273.655H229.517C234.393 273.655 238.345 277.607 238.345 282.483C238.345 287.358 234.393 291.31 229.517 291.31Z" fill="#4482C3"/>
<path d="M229.517 335.448H211.862C206.987 335.448 203.035 331.496 203.035 326.621C203.035 321.745 206.987 317.793 211.862 317.793H229.517C234.393 317.793 238.345 321.745 238.345 326.621C238.345 331.496 234.393 335.448 229.517 335.448Z" fill="#4482C3"/>
<path d="M229.517 379.586H211.862C206.987 379.586 203.035 375.634 203.035 370.759C203.035 365.883 206.987 361.931 211.862 361.931H229.517C234.393 361.931 238.345 365.883 238.345 370.759C238.345 375.634 234.393 379.586 229.517 379.586Z" fill="#4482C3"/>
<path d="M229.517 423.724H211.862C206.987 423.724 203.035 419.772 203.035 414.897C203.035 410.021 206.987 406.069 211.862 406.069H229.517C234.393 406.069 238.345 410.021 238.345 414.897C238.345 419.772 234.393 423.724 229.517 423.724Z" fill="#4482C3"/>
<path d="M494.963 65.2359L438.025 99.3986L412.602 73.9752L446.764 17.0372C452.326 7.77502 461.84 1.58743 472.562 0.260135C483.284 -1.06716 494.02 2.61353 501.672 10.24L501.76 10.3283C509.383 17.9821 513.061 28.7171 511.734 39.4375C510.407 50.1579 504.222 59.6719 494.963 65.2359Z" fill="#BDC3C7"/>
<path d="M477.308 65.2359L431.404 92.7779L412.602 73.9752L446.764 17.0372C451.444 9.14409 459.063 3.42957 467.95 1.14758C474.028 2.67261 479.58 5.81454 484.017 10.24L484.105 10.3283C491.728 17.9821 495.406 28.7171 494.079 39.4375C492.752 50.1579 486.567 59.6719 477.308 65.2359Z" fill="#E6E7E8"/>
<path d="M194 103.793V147.172H147.207V194H103.828V147.172H57V103.793H103.828V57H147.207V103.793H194Z" fill="#FF1D1C"/>
<path d="M446.845 274.12C438.859 284.786 428.672 293.612 416.973 300C405.301 293.604 395.14 284.779 387.179 274.12C376.66 260.223 377.178 238.458 392.218 233.748C408.851 228.572 417.025 253.559 417.025 253.559C417.025 253.559 425.315 228.391 441.844 233.748C456.78 238.678 457.35 260.223 446.845 274.12Z" fill="#EBEBEB"/>
<path d="M405.772 289L401.244 270.244L398.281 276.861H380V274.737H396.91L401.839 263.679L405.371 278.303L410.365 248L414.777 271.969L418.257 261.967L423.742 278.354L424.959 274.737H455V276.848H426.498L423.742 285.035L418.218 268.545L414.13 280.285L410.481 260.397L405.772 289Z" fill="white"/>
<path d="M417 309C407.507 309 398.226 306.185 390.333 300.911C382.439 295.636 376.287 288.14 372.654 279.369C369.021 270.598 368.07 260.947 369.922 251.636C371.774 242.325 376.346 233.772 383.059 227.059C389.772 220.346 398.325 215.774 407.636 213.922C416.947 212.07 426.598 213.021 435.369 216.654C444.14 220.287 451.636 226.439 456.911 234.333C462.185 242.226 465 251.507 465 261C465 273.73 459.943 285.939 450.941 294.941C441.939 303.943 429.73 309 417 309V309ZM417 215.231C407.938 215.231 399.079 217.919 391.543 222.954C384.008 227.988 378.135 235.145 374.667 243.517C371.199 251.89 370.292 261.103 372.06 269.991C373.828 278.879 378.192 287.044 384.6 293.452C391.008 299.86 399.173 304.224 408.061 305.992C416.949 307.76 426.162 306.853 434.535 303.385C442.907 299.916 450.064 294.044 455.098 286.508C460.133 278.973 462.821 270.114 462.821 261.052C462.817 248.898 457.989 237.243 449.398 228.647C440.806 220.05 429.154 215.216 417 215.205V215.231Z" fill="#EBEBEB"/>
<path d="M79.0234 304H65.9869V289.313H52V275.698H65.9869V261H78.9821V275.698H93V289.313H79.0234V304ZM67.8773 302.063H77.1744V287.376H91.1922V277.635H77.1744V262.937H67.8773V277.635H53.8491V287.376H67.8773V302.063Z" fill="#FF1D1C"/>
<path d="M421.239 415H404.761V397.581H387V381.432H404.761V364H421.239V381.432H439V397.581H421.239V415ZM407.117 412.702H418.896V395.283H436.657V383.73H418.896V366.323H407.117V383.756H389.343V395.309H407.117V412.702Z" fill="#FF1D1C"/>
</g>
<defs>
<clipPath id="clip0">
<rect width="512" height="512" fill="white"/>
</clipPath>
</defs>
</svg>
