<svg width="50" height="50" viewBox="0 0 50 50" fill="none" xmlns="http://www.w3.org/2000/svg">
<path d="M25 50C38.8071 50 50 38.8071 50 25C50 11.1929 38.8071 0 25 0C11.1929 0 0 11.1929 0 25C0 38.8071 11.1929 50 25 50Z" fill="#EDF3F7"/>
<path d="M30.7224 26.719C33.5078 24.8646 35.3448 21.7 35.3448 18.1034C35.3448 12.3905 30.7129 7.75861 25 7.75861C19.2871 7.75861 14.6552 12.3905 14.6552 18.1034C14.6552 21.7 16.4923 24.8646 19.2776 26.719C12.6104 28.7284 7.41984 34.1396 5.74829 40.9474L5.74915 40.9483C6.02157 41.2767 6.30433 41.5974 6.59312 41.9121C6.66295 41.9888 6.73622 42.0621 6.80777 42.1371C7.03019 42.3733 7.25519 42.606 7.48622 42.8336C7.58191 42.9276 7.67933 43.0181 7.77674 43.1103C7.99053 43.3138 8.20691 43.5146 8.4276 43.7103C8.53708 43.8069 8.64829 43.9026 8.75864 43.9974C8.97501 44.1827 9.19398 44.3646 9.41726 44.5422C9.5345 44.6362 9.6526 44.7284 9.7707 44.8207C9.99657 44.9948 10.2259 45.1638 10.4578 45.3293C10.5776 45.4146 10.6957 45.5017 10.8173 45.5853C11.0621 45.7543 11.3112 45.9164 11.5621 46.0767C11.675 46.1483 11.7854 46.2224 11.8992 46.2931C12.1888 46.4715 12.4836 46.6422 12.781 46.8095C12.8595 46.8534 12.9362 46.9008 13.0155 46.944C13.4 47.1543 13.7905 47.356 14.1871 47.5465C14.1966 47.5508 14.2069 47.5552 14.2164 47.5595C14.5948 47.7405 14.9793 47.9121 15.3681 48.0741C15.4888 48.125 15.6121 48.1698 15.7336 48.2181C16.0147 48.3302 16.2957 48.4405 16.5819 48.5422C16.7336 48.5965 16.8871 48.6457 17.0397 48.6974C17.3 48.7853 17.5621 48.8707 17.8259 48.9491C17.9931 48.9991 18.1612 49.0457 18.3302 49.0922C18.5854 49.1629 18.8423 49.2302 19.1017 49.2931C19.2767 49.3353 19.4526 49.3758 19.6293 49.4146C19.8888 49.4715 20.1492 49.5233 20.4112 49.5715C20.5888 49.6043 20.7655 49.6379 20.9448 49.6664C21.2155 49.7103 21.4879 49.7474 21.7612 49.7827C21.9336 49.8052 22.1052 49.8302 22.2785 49.8483C22.5802 49.881 22.8845 49.9043 23.1888 49.9258C23.3362 49.9362 23.4819 49.9517 23.6293 49.9595C24.0836 49.9853 24.5397 50 25 50C25.4604 50 25.9164 49.9853 26.3707 49.9612C26.5181 49.9534 26.6647 49.9379 26.8112 49.9276C27.1164 49.906 27.4207 49.8827 27.7216 49.85C27.8948 49.831 28.0664 49.8069 28.2388 49.7845C28.5121 49.7491 28.7845 49.7121 29.0552 49.6681C29.2336 49.6388 29.4112 49.606 29.5888 49.5733C29.8509 49.525 30.1121 49.4733 30.3707 49.4164C30.5474 49.3776 30.7233 49.3371 30.8983 49.2948C31.1569 49.2319 31.4138 49.1646 31.6698 49.094C31.8379 49.0474 32.0069 49.0008 32.1742 48.9508C32.4388 48.8715 32.7 48.7862 32.9604 48.6991C33.1129 48.6474 33.2673 48.5983 33.4181 48.5439C33.7035 48.4414 33.9854 48.3319 34.2664 48.2198C34.3879 48.1715 34.5112 48.1258 34.6319 48.0758C35.019 47.9138 35.4017 47.744 35.7785 47.5629C35.7897 47.5577 35.8017 47.5526 35.8129 47.5474C36.2095 47.3569 36.6 47.1552 36.9845 46.9448C37.0638 46.9017 37.1405 46.8543 37.219 46.8103C37.5164 46.6431 37.8112 46.4724 38.1009 46.2939C38.2147 46.2241 38.3259 46.15 38.4379 46.0776C38.6888 45.9172 38.9379 45.7543 39.1828 45.5862C39.3035 45.5026 39.4224 45.4164 39.5423 45.3302C39.7742 45.1638 40.0035 44.9948 40.2293 44.8215C40.3483 44.7302 40.4655 44.6371 40.5828 44.5431C40.8052 44.3655 41.025 44.1836 41.2414 43.9983C41.3526 43.9034 41.4638 43.8077 41.5724 43.7112C41.7931 43.5155 42.0095 43.3146 42.2233 43.1112C42.3198 43.0189 42.4181 42.9276 42.5138 42.8345C42.7448 42.6069 42.9707 42.3741 43.1923 42.1379C43.2629 42.0621 43.3362 41.9888 43.4069 41.9129C43.6957 41.5983 43.9785 41.2776 44.2509 40.9491L44.2517 40.9483C42.581 34.1396 37.3897 28.7284 30.7224 26.719Z" fill="#02B9D4"/>
</svg>
